<?xml version="1.0" encoding="UTF-8"?>
<svg width="1280px" height="486px" viewBox="0 0 1280 486" version="1.1" xmlns="http://www.w3.org/2000/svg" xmlns:xlink="http://www.w3.org/1999/xlink">
    <!-- Generator: Sketch 44.1 (41455) - http://www.bohemiancoding.com/sketch -->
    <title>Page 1</title>
    <desc>Created with Sketch.</desc>
    <defs>
        <rect id="path-1" x="0" y="0" width="1280" height="612"></rect>
        <polygon id="path-3" points="0 593.458872 1496.51221 593.458872 1496.51221 1.42108547e-13 0 1.42108547e-13"></polygon>
    </defs>
    <g id="Page-1" stroke="none" stroke-width="1" fill="none" fill-rule="evenodd">
        <g id="Homepage-V3" transform="translate(0.000000, -3393.000000)">
            <g id="CTA" transform="translate(0.000000, 3267.000000)">
                <g id="Page-1">
                    <mask id="mask-2" fill="white">
                        <use xlink:href="#path-1"></use>
                    </mask>
                    <use id="Mask" fill-opacity="0" fill="#54A9F4" xlink:href="#path-1"></use>
                    <g mask="url(#mask-2)">
                        <g transform="translate(-244.000000, 46.923328)">
                            <polygon id="Fill-1" stroke="none" fill="#4C8CC9" fill-rule="evenodd" points="1252.36315 530.333659 1255.29883 530.333659 1255.29883 383.848839 1252.36315 383.848839"></polygon>
                            <path d="M1.18048025,530.754595 L1514.26345,530.754595" id="Stroke-2" stroke="#FFFFFF" stroke-width="0.75" fill="none"></path>
                            <polygon id="Fill-4" stroke="none" fill="#4C8CC9" fill-rule="evenodd" points="1142.42207 240.000252 1125.67752 240.000252 1123.4423 235.320621 1125.67752 231.309286 1142.42207 231.309286"></polygon>
                            <g id="Group-252" stroke="none" stroke-width="1" fill="none" fill-rule="evenodd" transform="translate(27.151046, 0.175764)">
                                <path d="M1115.94132,216.648969 C1113.9315,234.476171 1115.27099,243.835432 1116.38703,255.424949 L1115.94132,216.648969 Z" id="Stroke-5" stroke="#4C8CC9" stroke-width="0.75"></path>
                                <mask id="mask-4" fill="white">
                                    <use xlink:href="#path-3"></use>
                                </mask>
                                <g id="Clip-26"></g>
                                <polyline id="Stroke-43" stroke="#FFFFFF" stroke-width="0.75" mask="url(#mask-4)" points="401.272081 529.822067 401.272081 243.522102 256.483896 243.522102 256.483896 529.822067"></polyline>
                                <path d="M404.989615,243.130734 L404.989615,287.657725" id="Stroke-44" stroke="#FFFFFF" stroke-width="0.75" mask="url(#mask-4)"></path>
                                <path d="M397.163227,483.732725 L397.163227,528.259716" id="Stroke-45" stroke="#FFFFFF" stroke-width="0.75" mask="url(#mask-4)"></path>
                                <path d="M260.20143,483.732725 L260.20143,528.259716" id="Stroke-46" stroke="#FFFFFF" stroke-width="0.75" mask="url(#mask-4)"></path>
                                <path d="M261.37578,247.03661 L298.942444,247.03661" id="Stroke-47" stroke="#FFFFFF" stroke-width="0.75" mask="url(#mask-4)"></path>
                                <path d="M357.248646,247.03661 L394.81531,247.03661" id="Stroke-48" stroke="#FFFFFF" stroke-width="0.75" mask="url(#mask-4)"></path>
                                <path d="M427.686142,346.296805 C427.686142,344.539161 426.258608,343.114297 424.497671,343.114297 L413.656558,343.114297 C411.89562,343.114297 410.468087,344.539161 410.468087,346.296805 L410.468087,366.498389 C410.468087,368.256033 411.89562,369.681288 413.656558,369.681288 L424.497671,369.681288 C426.258608,369.681288 427.686142,368.256033 427.686142,366.498389 L427.686142,346.296805 Z" id="Fill-49" fill="#FFFFFF" mask="url(#mask-4)"></path>
                                <path d="M429.250637,343.563629 C429.250637,341.805985 427.823103,340.381121 426.062166,340.381121 L415.221053,340.381121 C413.460115,340.381121 412.032582,341.805985 412.032582,343.563629 L412.032582,363.765213 C412.032582,365.522857 413.460115,366.948112 415.221053,366.948112 L426.062166,366.948112 C427.823103,366.948112 429.250637,365.522857 429.250637,363.765213 L429.250637,343.563629 Z" id="Stroke-50" stroke="#5C6A6A" stroke-width="0.75" mask="url(#mask-4)"></path>
                                <polygon id="Fill-51" fill="#4C8CC9" mask="url(#mask-4)" points="264.898985 529.821989 392.663601 529.821989 392.663601 251.723584 264.898985 251.723584"></polygon>
                                <path d="M269.774981,258.75424 L269.774981,523.572665" id="Stroke-52" stroke="#FFFFFF" stroke-width="0.75" mask="url(#mask-4)"></path>
                                <path d="M322.607329,513.417386 C322.607329,514.711403 321.555854,515.760912 320.259413,515.760912 C318.962972,515.760912 317.911496,514.711403 317.911496,513.417386 C317.911496,512.123369 318.962972,511.07386 320.259413,511.07386 C321.555854,511.07386 322.607329,512.123369 322.607329,513.417386" id="Fill-53" fill="#2D64A5" mask="url(#mask-4)"></path>
                                <path d="M335.129551,513.417386 C335.129551,514.711403 334.078075,515.760912 332.781634,515.760912 C331.485193,515.760912 330.433718,514.711403 330.433718,513.417386 C330.433718,512.123369 331.485193,511.07386 332.781634,511.07386 C334.078075,511.07386 335.129551,512.123369 335.129551,513.417386" id="Fill-54" fill="#2D64A5" mask="url(#mask-4)"></path>
                                <path d="M347.651772,513.417386 C347.651772,514.711403 346.600297,515.760912 345.303856,515.760912 C344.007414,515.760912 342.955939,514.711403 342.955939,513.417386 C342.955939,512.123369 344.007414,511.07386 345.303856,511.07386 C346.600297,511.07386 347.651772,512.123369 347.651772,513.417386" id="Fill-55" fill="#2D64A5" mask="url(#mask-4)"></path>
                                <path d="M422.990309,342.339996 L422.990309,370.462307" id="Stroke-56" stroke="#3A79BB" mask="url(#mask-4)"></path>
                                <path d="M420.642392,342.339996 L420.642392,370.462307" id="Stroke-57" stroke="#3A79BB" mask="url(#mask-4)"></path>
                                <path d="M415.946559,351.7141 C415.379146,351.7141 414.919346,351.254769 414.919346,350.688807 C414.919346,350.122455 415.379146,349.663515 415.946559,349.663515 C416.513581,349.663515 416.973772,350.122455 416.973772,350.688807 C416.973772,351.254769 416.513581,351.7141 415.946559,351.7141" id="Fill-58" fill="#535CC1" mask="url(#mask-4)"></path>
                                <path d="M415.946559,357.182327 C415.379146,357.182327 414.919346,356.722996 414.919346,356.157034 C414.919346,355.590682 415.379146,355.131742 415.946559,355.131742 C416.513581,355.131742 416.973772,355.590682 416.973772,356.157034 C416.973772,356.722996 416.513581,357.182327 415.946559,357.182327" id="Fill-59" fill="#535CC1" mask="url(#mask-4)"></path>
                                <path d="M415.946559,362.650554 C415.379146,362.650554 414.919346,362.191223 414.919346,361.625261 C414.919346,361.058909 415.379146,360.599969 415.946559,360.599969 C416.513581,360.599969 416.973772,361.058909 416.973772,361.625261 C416.973772,362.191223 416.513581,362.650554 415.946559,362.650554" id="Fill-60" fill="#535CC1" mask="url(#mask-4)"></path>
                                <path d="M297.958784,299.492258 C299.132743,290.897767 309.699541,281.522882 319.092381,280.741317" id="Stroke-61" stroke="#FFFFFF" stroke-width="0.75" mask="url(#mask-4)"></path>
                                <path d="M354.901864,314.33576 C354.901864,327.280225 344.389068,337.773753 331.41996,337.773753 C318.451634,337.773753 307.938447,327.280225 307.938447,314.33576 C307.938447,301.391295 318.451634,290.897767 331.41996,290.897767 C344.389068,290.897767 354.901864,301.391295 354.901864,314.33576" id="Fill-62" fill="#2D64A5" mask="url(#mask-4)"></path>
                                <path d="M361.359026,314.33537 C361.359026,330.839651 347.954771,344.218449 331.41996,344.218449 C314.885149,344.218449 301.480894,330.839651 301.480894,314.33537 C301.480894,297.831479 314.885149,284.45229 331.41996,284.45229 C347.954771,284.45229 361.359026,297.831479 361.359026,314.33537 Z" id="Stroke-63" stroke="#2D64A5" mask="url(#mask-4)"></path>
                                <path d="M349.418423,315.11217 C348.244465,323.706661 341.975136,331.245784 332.582296,332.02735" id="Stroke-64" stroke="#FFFFFF" stroke-width="0.75" mask="url(#mask-4)"></path>
                                <path d="M347.865002,325.218782 C346.598692,327.193984 344.978239,328.944988 343.072904,330.320638" id="Stroke-65" stroke="#FFFFFF" stroke-width="0.75" mask="url(#mask-4)"></path>
                                <path d="M313.602013,313.864672 C314.775971,305.270182 321.0453,297.731059 330.43814,296.949493" id="Stroke-66" stroke="#FFFFFF" stroke-width="0.75" mask="url(#mask-4)"></path>
                                <path d="M315.155434,303.758022 C316.421743,301.78282 318.042197,300.031816 319.947531,298.656166" id="Stroke-67" stroke="#FFFFFF" stroke-width="0.75" mask="url(#mask-4)"></path>
                                <path d="M287.064139,418.279531 C287.064139,419.91414 285.737175,421.238623 284.099503,421.238623 L279.949169,421.238623 C278.31228,421.238623 276.984924,419.91414 276.984924,418.279531 L276.984924,401.710022 C276.984924,400.075803 278.31228,398.75093 279.949169,398.75093 L284.099503,398.75093 C285.737175,398.75093 287.064139,400.075803 287.064139,401.710022 L287.064139,418.279531 Z" id="Stroke-72" stroke="#FFFFFF" stroke-width="0.75" mask="url(#mask-4)"></path>
                                <path d="M287.225401,401.136405 C279.778593,407.092085 279.770766,413.01066 286.54294,418.512868" id="Fill-73" fill="#FFFFFF" mask="url(#mask-4)"></path>
                                <path d="M289.957007,402.159393 L289.957007,417.151318" id="Stroke-74" stroke="#FFFFFF" stroke-width="0.75" mask="url(#mask-4)"></path>
                                <path d="M293.028708,402.159393 L293.028708,417.151318" id="Stroke-75" stroke="#FFFFFF" stroke-width="0.75" mask="url(#mask-4)"></path>
                                <polygon id="Fill-76" fill="#F2F0F8" mask="url(#mask-4)" points="1481.05955 79.7225844 1422.04076 79.7225844 1422.04076 515.524687 1438.21282 593.038483 1480.86429 592.83782"></polygon>
                                <polygon id="Fill-77" fill="#3A79BB" mask="url(#mask-4)" points="1406.70996 529.82277 1421.38366 529.82277 1421.38366 79.7225844 1406.70996 79.7225844"></polygon>
                                <polygon id="Fill-78" fill="#3A79BB" mask="url(#mask-4)" points="1489.47981 527.897368 1486.73979 527.897368 1503.54461 592.65641 1506.28463 592.65641"></polygon>
                                <path d="M1412.57827,81.1250544 L1412.57827,530.044507" id="Stroke-79" stroke="#FFFFFF" stroke-width="0.75" stroke-linecap="round" mask="url(#mask-4)"></path>
                                <polygon id="Fill-80" fill="#3A79BB" mask="url(#mask-4)" points="1450.73105 593.458872 1515.88886 593.458872 1515.88886 79.7319585 1450.73105 79.7319585"></polygon>
                                <path d="M1458.94848,81.1250544 L1458.94848,592.873069" id="Stroke-81" stroke="#FFFFFF" stroke-width="2" stroke-linecap="round" mask="url(#mask-4)"></path>
                                <polygon id="Fill-82" fill="#4C8CC9" mask="url(#mask-4)" points="513.643522 519.481962 615.386571 519.481962 615.386571 392.150389 513.643522 392.150389"></polygon>
                                <polygon id="Stroke-83" stroke="#FFFFFF" stroke-width="0.75" mask="url(#mask-4)" points="509.730328 523.387839 598.951155 523.387839 598.951155 474.95497 509.730328 474.95497"></polygon>
                                <polygon id="Stroke-84" stroke="#FFFFFF" stroke-width="0.75" mask="url(#mask-4)" points="509.730328 471.830269 598.951155 471.830269 598.951155 423.397401 509.730328 423.397401"></polygon>
                                <polygon id="Stroke-85" stroke="#FFFFFF" stroke-width="0.75" mask="url(#mask-4)" points="509.730328 420.2727 598.951155 420.2727 598.951155 371.839831 509.730328 371.839831"></polygon>
                                <path d="M565.688926,396.056109 C565.688926,394.330493 564.28722,392.931408 562.558371,392.931408 L546.122955,392.931408 C544.394106,392.931408 542.9924,394.330493 542.9924,396.056109 C542.9924,397.781725 544.394106,399.18081 546.122955,399.18081 L562.558371,399.18081 C564.28722,399.18081 565.688926,397.781725 565.688926,396.056109" id="Fill-86" fill="#FFFFFF" mask="url(#mask-4)"></path>
                                <path d="M565.688926,447.223443 C565.688926,445.497826 564.28722,444.098741 562.558371,444.098741 L546.122955,444.098741 C544.394106,444.098741 542.9924,445.497826 542.9924,447.223443 C542.9924,448.949059 544.394106,450.348144 546.122955,450.348144 L562.558371,450.348144 C564.28722,450.348144 565.688926,448.949059 565.688926,447.223443" id="Fill-87" fill="#FFFFFF" mask="url(#mask-4)"></path>
                                <path d="M565.688926,498.390815 C565.688926,496.665199 564.28722,495.266114 562.558371,495.266114 L546.122955,495.266114 C544.394106,495.266114 542.9924,496.665199 542.9924,498.390815 C542.9924,500.116431 544.394106,501.515516 546.122955,501.515516 L562.558371,501.515516 C564.28722,501.515516 565.688926,500.116431 565.688926,498.390815" id="Fill-88" fill="#FFFFFF" mask="url(#mask-4)"></path>
                                <polygon id="Stroke-89" stroke="#FFFFFF" stroke-width="0.75" mask="url(#mask-4)" points="602.08171 523.387839 627.126153 523.387839 627.126153 371.839831 602.08171 371.839831"></polygon>
                                <polygon id="Fill-90" fill="#FFFFFF" mask="url(#mask-4)" points="525.935608 529.664934 517.525763 529.664934 516.35063 523.80651 527.502451 523.80651"></polygon>
                                <polygon id="Fill-91" fill="#FFFFFF" mask="url(#mask-4)" points="590.206379 529.664934 581.796534 529.664934 580.621401 523.80651 591.773222 523.80651"></polygon>
                                <polygon id="Stroke-92" stroke="#FFFFFF" mask="url(#mask-4)" points="620.727768 529.664934 612.317922 529.664934 611.14279 523.80651 622.294611 523.80651"></polygon>
                                <polygon id="Stroke-93" stroke="#FFFFFF" mask="url(#mask-4)" points="549.12011 529.664934 540.710264 529.664934 539.535132 523.80651 550.686953 523.80651"></polygon>
                                <path d="M505.197949,368.555536 L631.3922,368.555536" id="Stroke-94" stroke="#FFFFFF" stroke-width="0.75" mask="url(#mask-4)"></path>
                                <path d="M542.763087,367.383968 C542.763087,367.383968 546.284961,357.424374 558.610741,355.080848 C570.93652,352.737322 572.697066,354.494967 578.566857,350.394187 C584.436648,346.293017 592.653965,339.848711 605.566723,339.848711 C605.566723,340.434592 605.763165,368.555731 605.763165,368.555731" id="Stroke-95" stroke="#FFFFFF" stroke-width="0.75" mask="url(#mask-4)"></path>
                                <polygon id="Fill-96" fill="#3A79BB" mask="url(#mask-4)" points="553.328398 368.360477 563.809889 368.360477 563.809889 331.060919 553.328398 331.060919"></polygon>
                                <polygon id="Fill-97" fill="#535CC1" mask="url(#mask-4)" points="565.075807 368.360477 575.557689 368.360477 575.557689 331.060919 565.075807 331.060919"></polygon>
                                <polygon id="Fill-98" fill="#3A79BB" mask="url(#mask-4)" points="576.823607 368.360477 587.305098 368.360477 587.305098 331.060919 576.823607 331.060919"></polygon>
                                <polygon id="Fill-99" fill="#3A79BB" mask="url(#mask-4)" points="588.571407 368.360477 599.052898 368.360477 599.052898 331.060919 588.571407 331.060919"></polygon>
                                <path d="M560.958696,340.141808 C560.958696,341.597919 559.776129,342.778275 558.31729,342.778275 C556.85806,342.778275 555.675884,341.597919 555.675884,340.141808 C555.675884,338.685697 556.85806,337.505341 558.31729,337.505341 C559.776129,337.505341 560.958696,338.685697 560.958696,340.141808 Z" id="Stroke-100" stroke="#FFFFFF" stroke-width="0.75" mask="url(#mask-4)"></path>
                                <path d="M572.990986,340.141808 C572.990986,341.597919 571.808418,342.778275 570.34958,342.778275 C568.890349,342.778275 567.708174,341.597919 567.708174,340.141808 C567.708174,338.685697 568.890349,337.505341 570.34958,337.505341 C571.808418,337.505341 572.990986,338.685697 572.990986,340.141808 Z" id="Stroke-101" stroke="#2D64A5" mask="url(#mask-4)"></path>
                                <path d="M584.436687,340.141808 C584.436687,341.597919 583.25412,342.778275 581.795281,342.778275 C580.336443,342.778275 579.153875,341.597919 579.153875,340.141808 C579.153875,338.685697 580.336443,337.505341 581.795281,337.505341 C583.25412,337.505341 584.436687,338.685697 584.436687,340.141808 Z" id="Stroke-102" stroke="#FFFFFF" stroke-width="0.75" mask="url(#mask-4)"></path>
                                <path d="M596.469016,340.141808 C596.469016,341.597919 595.286449,342.778275 593.82761,342.778275 C592.368771,342.778275 591.186204,341.597919 591.186204,340.141808 C591.186204,338.685697 592.368771,337.505341 593.82761,337.505341 C595.286449,337.505341 596.469016,338.685697 596.469016,340.141808 Z" id="Stroke-103" stroke="#FFFFFF" stroke-width="0.75" mask="url(#mask-4)"></path>
                                <path d="M1106.71131,263.358916 C1116.92122,283.18827 1110.07078,299.459761 1089.09998,307.890205" id="Stroke-104" stroke="#FFFFFF" stroke-width="0.75" mask="url(#mask-4)"></path>
                                <path d="M1102.01508,272.733957 C1106.5763,282.573251 1103.33735,291.348193 1093.79659,297.343323" id="Stroke-105" stroke="#FFFFFF" stroke-width="0.75" mask="url(#mask-4)"></path>
                                <path d="M1369.85033,346.293759 C1369.85033,344.536114 1368.4228,343.111251 1366.66186,343.111251 L1355.82075,343.111251 C1354.05981,343.111251 1352.63228,344.536114 1352.63228,346.293759 L1352.63228,366.495342 C1352.63228,368.252987 1354.05981,369.678241 1355.82075,369.678241 L1366.66186,369.678241 C1368.4228,369.678241 1369.85033,368.252987 1369.85033,366.495342 L1369.85033,346.293759 Z" id="Fill-106" fill="#429CFA" mask="url(#mask-4)"></path>
                                <path d="M1371.41483,343.560583 C1371.41483,341.802938 1369.98729,340.378074 1368.22636,340.378074 L1357.38564,340.378074 C1355.6247,340.378074 1354.19677,341.802938 1354.19677,343.560583 L1354.19677,363.762166 C1354.19677,365.519811 1355.6247,366.944674 1357.38564,366.944674 L1368.22636,366.944674 C1369.98729,366.944674 1371.41483,365.519811 1371.41483,363.762166 L1371.41483,343.560583 Z" id="Stroke-107" stroke="#FFFFFF" stroke-width="0.75" mask="url(#mask-4)"></path>
                                <path d="M1365.1545,342.33695 L1365.1545,370.45926" id="Stroke-108" stroke="#FFFFFF" mask="url(#mask-4)"></path>
                                <path d="M1362.80658,342.33695 L1362.80658,370.45926" id="Stroke-109" stroke="#FFFFFF" mask="url(#mask-4)"></path>
                                <path d="M1358.11075,351.711053 C1357.54373,351.711053 1357.08393,351.251722 1357.08393,350.685761 C1357.08393,350.119408 1357.54373,349.660468 1358.11075,349.660468 C1358.67777,349.660468 1359.13835,350.119408 1359.13835,350.685761 C1359.13835,351.251722 1358.67777,351.711053 1358.11075,351.711053" id="Fill-110" fill="#535CC1" mask="url(#mask-4)"></path>
                                <path d="M1358.11075,357.17928 C1357.54373,357.17928 1357.08393,356.719949 1357.08393,356.153988 C1357.08393,355.588026 1357.54373,355.128695 1358.11075,355.128695 C1358.67777,355.128695 1359.13835,355.588026 1359.13835,356.153988 C1359.13835,356.719949 1358.67777,357.17928 1358.11075,357.17928" id="Fill-111" fill="#535CC1" mask="url(#mask-4)"></path>
                                <path d="M1358.11075,362.647507 C1357.54373,362.647507 1357.08393,362.188176 1357.08393,361.622215 C1357.08393,361.056253 1357.54373,360.596922 1358.11075,360.596922 C1358.67777,360.596922 1359.13835,361.056253 1359.13835,361.622215 C1359.13835,362.188176 1358.67777,362.647507 1358.11075,362.647507" id="Fill-112" fill="#535CC1" mask="url(#mask-4)"></path>
                                <path d="M1347.05062,524.579287 L1347.05062,445.882516 C1347.05062,438.209812 1340.81924,431.990095 1333.13295,431.990095 L1311.24724,431.990095 C1303.56016,431.990095 1297.32879,438.209812 1297.32879,445.882516 L1297.32879,524.579287 L1347.05062,524.579287 Z" id="Fill-114" fill="#429CFA" mask="url(#mask-4)"></path>
                                <path d="M1343.52913,529.85222 L1343.52913,451.155449 C1343.52913,443.482746 1337.29737,437.263028 1329.61147,437.263028 L1307.72575,437.263028 C1300.03867,437.263028 1293.8073,443.482746 1293.8073,451.155449 L1293.8073,529.85222 L1343.52913,529.85222 Z" id="Fill-113" fill="#FFFFFF" mask="url(#mask-4)"></path>
                                <path d="M1338.83365,458.421942 L1338.83365,452.001853 C1338.83365,445.77862 1333.77937,440.73379 1327.54448,440.73379 L1309.79227,440.73379 C1303.55738,440.73379 1298.5031,445.77862 1298.5031,452.001853 L1298.5031,458.421942 L1338.83365,458.421942 Z" id="Fill-115" fill="#4C8CC9" mask="url(#mask-4)"></path>
                                <path d="M1341.76819,455.492925 L1341.76819,449.072836 C1341.76819,442.849603 1336.71391,437.804773 1330.47902,437.804773 L1312.72682,437.804773 C1306.49192,437.804773 1301.43764,442.849603 1301.43764,449.072836 L1301.43764,455.492925 L1341.76819,455.492925 Z" id="Stroke-116" stroke="#5C6A6A" stroke-width="0.608" mask="url(#mask-4)"></path>
                                <path d="M1302.52731,461.698465 L1334.8096,461.698465" id="Stroke-117" stroke="#5C6A6A" stroke-width="0.608" mask="url(#mask-4)"></path>
                                <path d="M1302.52731,463.747526 L1334.8096,463.747526" id="Stroke-118" stroke="#5C6A6A" stroke-width="0.608" mask="url(#mask-4)"></path>
                                <path d="M1323.95933,529.206071 C1323.68423,526.531718 1321.42084,524.445589 1318.6683,524.445589 C1315.91654,524.445589 1313.65276,526.531718 1313.37766,529.206071 L1323.95933,529.206071 Z" id="Fill-119" fill="#4C8CC9" mask="url(#mask-4)"></path>
                                <path d="M1335.37141,473.41418 L1335.37141,525.554897" id="Stroke-120" stroke="#5C6A6A" stroke-width="0.608" mask="url(#mask-4)"></path>
                                <path d="M1256.61912,349.424944 C1256.61912,345.674521 1253.5727,342.634187 1249.81525,342.634187 L1203.54486,342.634187 C1199.78702,342.634187 1196.74099,345.674521 1196.74099,349.424944 L1196.74099,377.27189 C1196.74099,381.022313 1199.78702,384.062647 1203.54486,384.062647 L1249.81525,384.062647 C1253.5727,384.062647 1256.61912,381.022313 1256.61912,377.27189 L1256.61912,349.424944 Z" id="Fill-121" fill="#3A9BF1" mask="url(#mask-4)"></path>
                                <path d="M1261.5114,344.737697 C1261.5114,340.987274 1258.46537,337.94694 1254.70753,337.94694 L1208.43714,337.94694 C1204.67969,337.94694 1201.63327,340.987274 1201.63327,344.737697 L1201.63327,372.584643 C1201.63327,376.335065 1204.67969,379.3754 1208.43714,379.3754 L1254.70753,379.3754 C1258.46537,379.3754 1261.5114,376.335065 1261.5114,372.584643 L1261.5114,344.737697 Z" id="Stroke-122" stroke="#5C6A6A" stroke-width="0.75" mask="url(#mask-4)"></path>
                                <path d="M1244.29143,530.840485 C1242.95272,529.061359 1240.82199,527.910687 1238.42164,527.910687 L1214.93856,527.910687 C1212.53781,527.910687 1210.40708,529.061359 1209.06838,530.840485 L1244.29143,530.840485 Z" id="Fill-123" fill="#4C8CC9" mask="url(#mask-4)"></path>
                                <polygon id="Fill-124" fill="#ED0086" mask="url(#mask-4)" points="1242.90307 369.172508 1234.53509 364.617866 1234.53509 367.377367 1217.2869 367.377367 1217.2869 370.967649 1234.53509 370.967649 1234.53509 373.727151"></polygon>
                                <path d="M1212.86128,350.932924 L1244.16683,350.932924" id="Stroke-125" stroke="#5C6A6A" stroke-width="0.75" mask="url(#mask-4)"></path>
                                <path d="M1212.86128,354.448213 L1244.16683,354.448213" id="Stroke-126" stroke="#5C6A6A" stroke-width="0.75" mask="url(#mask-4)"></path>
                                <path d="M1212.86128,358.353699 L1244.16683,358.353699" id="Stroke-127" stroke="#5C6A6A" stroke-width="0.75" mask="url(#mask-4)"></path>
                                <path d="M1064.48055,455.447148 C1077.3933,457.162609 1082.48085,455.642052 1091.28475,459.743222" id="Stroke-128" stroke="#FFFFFF" stroke-width="0.75" mask="url(#mask-4)"></path>
                                <path d="M1066.04621,450.95539 C1072.85595,448.849732 1079.19885,445.223126 1084.24178,440.409915" id="Stroke-129" stroke="#FFFFFF" stroke-width="0.75" mask="url(#mask-4)"></path>
                                <path d="M1077.98028,445.682848 C1081.44659,447.080761 1084.68985,446.609712 1086.78458,443.925203" id="Stroke-130" stroke="#FFFFFF" stroke-width="0.75" mask="url(#mask-4)"></path>
                                <path d="M1068.98111,455.642052 C1071.21398,456.535716 1072.91348,458.488264 1073.67655,460.914985" id="Stroke-131" stroke="#FFFFFF" stroke-width="0.75" mask="url(#mask-4)"></path>
                                <path d="M1076.02408,456.227933 C1078.43695,455.837736 1080.36577,454.353112 1081.30689,452.127153" id="Stroke-132" stroke="#FFFFFF" stroke-width="0.75" mask="url(#mask-4)"></path>
                                <path d="M1087.76327,427.521264 C1092.23448,427.238869 1094.93381,424.424685 1095.39361,419.905196" id="Stroke-133" stroke="#FFFFFF" stroke-width="0.75" mask="url(#mask-4)"></path>
                                <path d="M1088.93723,422.248722 C1091.33993,419.793488 1092.33271,416.856269 1091.87173,413.46089" id="Stroke-134" stroke="#FFFFFF" stroke-width="0.75" mask="url(#mask-4)"></path>
                                <path d="M1119.46245,472.045991 C1124.16728,474.395766 1129.36753,474.854316 1134.13615,473.217754" id="Stroke-135" stroke="#FFFFFF" stroke-width="0.75" mask="url(#mask-4)"></path>
                                <path d="M1127.09318,479.076178 C1131.13238,479.762831 1134.96926,478.996107 1138.245,476.732652" id="Stroke-136" stroke="#FFFFFF" stroke-width="0.75" mask="url(#mask-4)"></path>
                                <path d="M1430.16549,246.767365 C1430.16549,267.478275 1432.53102,284.267685 1435.4483,284.267685 C1438.36676,284.267685 1440.7319,267.478275 1440.7319,246.767365 C1440.7319,226.056846 1438.36676,209.267436 1435.4483,209.267436 C1432.53102,209.267436 1430.16549,226.056846 1430.16549,246.767365" id="Fill-137" fill="#4C8CC9" mask="url(#mask-4)"></path>
                                <path d="M1427.56611,246.767365 C1427.56611,274.597516 1432.70296,297.158249 1436.62359,297.158249 C1440.54461,297.158249 1444.1154,274.597516 1444.1154,246.767365 C1444.1154,218.937604 1440.54461,196.376871 1436.62359,196.376871 C1432.70296,196.376871 1427.56611,218.937604 1427.56611,246.767365 Z" id="Stroke-138" stroke="#4C8CC9" stroke-width="0.75" mask="url(#mask-4)"></path>
                                <path d="M1434.07943,246.767365 C1434.07943,261.490957 1435.2753,274.230364 1437.01432,280.366496 C1438.75413,274.230364 1439.95,261.490957 1439.95,246.767365 C1439.95,232.044164 1438.75413,219.304757 1437.01432,213.168234 C1435.2753,219.304757 1434.07943,232.044164 1434.07943,246.767365" id="Fill-139" fill="#2D64A5" mask="url(#mask-4)"></path>
                                <path d="M1427.62536,396.863988 L1441.3188,335.926065" id="Stroke-140" stroke="#2D64A5" stroke-width="7" stroke-linecap="round" mask="url(#mask-4)"></path>
                                <path d="M1435.06043,400.379667 L1448.75387,339.441745" id="Stroke-141" stroke="#BECBD3" stroke-width="4" stroke-linecap="round" mask="url(#mask-4)"></path>
                                <path d="M1429.97327,389.049579 L1439.36572,389.049579" id="Stroke-142" stroke="#2D64A5" stroke-width="0.75" mask="url(#mask-4)"></path>
                                <path d="M1438.58074,348.034829 L1447.97318,348.034829" id="Stroke-143" stroke="#2D64A5" stroke-width="0.75" mask="url(#mask-4)"></path>
                                <path d="M778.118043,445.76866 C774.536687,444.491048 764.427341,440.238329 773.34512,426.166238 C782.262898,412.094146 789.005331,414.017009 787.135999,407.060252 C792.813261,411.50514 798.265514,419.739899 800.13563,426.696656 C802.005354,433.652631 802.391977,442.497879 796.895896,445.212854 C791.399815,447.927828 785.936605,442.431088 785.936605,442.431088 C785.936605,442.431088 781.698615,447.045881 778.118043,445.76866" id="Fill-144" fill="#ED0086" mask="url(#mask-4)"></path>
                                <path d="M866.872652,452.557815 C866.872652,452.557815 864.590477,462.427575 863.069419,465.464394 C861.549143,468.501212 856.984793,475.333762 856.984793,480.648098 L856.984793,485.962824" id="Stroke-145" stroke="#FFFFFF" stroke-width="0.75" mask="url(#mask-4)"></path>
                                <path d="M904.038801,448.205653 C904.038801,448.205653 906.386326,434.14567 926.342834,435.902924 C946.299342,437.660177 943.364446,434.145279 945.124992,431.216262 C945.124992,437.660568 939.842963,450.549179 934.56015,451.135061 C939.255592,457.579366 950.407804,446.448009 951.581762,456.407603 C952.755721,466.367198 953.342309,462.8523 956.864183,462.266418 C960.386058,461.680537 965.668479,466.367198 965.668479,466.367198 C956.277204,473.983266 926.342443,456.407603 922.820959,464.023672 C919.299476,471.63974 906.973305,483.356979 906.973305,483.356979 C906.973305,483.356979 904.62578,488.629522 902.864843,489.215403 C901.103905,489.801285 867.061072,489.215403 867.061072,489.215403 C867.061072,489.215403 885.256251,455.236231 891.712631,453.478587 C898.16901,451.720942 904.038801,448.205653 904.038801,448.205653" id="Fill-146" fill="#3A79BB" mask="url(#mask-4)"></path>
                                <path d="M764.949205,472.296982 C774.545531,479.297094 784.64979,483.021347 793.055722,492.84697 C796.810041,489.675008 801.628357,486.714354 805.27741,482.835428 C820.102938,508.117385 869.543016,477.899181 847.854528,451.704811 C845.695619,451.798943 840.062967,454.848651 837.324123,455.479841 C842.880467,417.641662 821.307419,443.065012 807.356099,447.207194 C800.032556,449.380814 768.730133,462.919754 763.427364,470.778378" id="Fill-147" fill="#3A79BB" mask="url(#mask-4)"></path>
                                <path d="M837.208801,446.484255 C837.208801,446.484255 835.68696,457.871838 845.575601,454.83541 C847.856994,463.945867 854.701953,461.668741 859.266303,457.113317 C863.830261,452.557893 865.351711,447.243558 864.591377,435.855194 C863.830261,424.46722 866.87277,422.949006 869.915278,419.912187 C858.50636,422.189704 850.138386,425.226913 847.856994,430.541249 C845.575601,435.855194 840.251309,441.928832 837.208801,446.484255" id="Fill-148" fill="#3A79BB" mask="url(#mask-4)"></path>
                                <path d="M838.010928,453.005585 C838.010928,453.005585 830.734343,461.906687 840.749772,464.495111 C837.907619,473.44738 844.933368,475.089411 851.212479,473.598538 C857.491591,472.107274 861.578531,468.377552 866.911432,458.281643 C872.244724,448.185733 875.632768,448.484924 879.819103,447.490487 C868.907161,443.460404 860.185825,441.668779 855.451643,445.000491 C850.718634,448.331813 842.99438,450.718694 838.010928,453.005585" id="Fill-149" fill="#3A79BB" mask="url(#mask-4)"></path>
                                <path d="M733.763669,416.875095 C733.763669,416.875095 722.35436,417.634397 719.31146,429.022761 C716.268952,440.410735 718.551127,445.72468 718.551127,445.72468 C718.551127,445.72468 733.763669,431.299887 742.130861,433.577794 C750.497661,435.855311 763.427638,424.467338 756.582678,419.153002 C749.736545,413.838276 739.08757,422.189821 739.08757,422.189821 C739.08757,422.189821 738.328019,416.116183 733.763669,416.875095" id="Fill-150" fill="#3A79BB" mask="url(#mask-4)"></path>
                                <path d="M766.470537,447.243675 C766.470537,447.243675 753.539779,441.169647 758.103346,455.59483 C762.667695,470.020013 773.316671,463.187072 781.683471,467.741715 L790.050272,472.297139 C790.050272,472.297139 792.331664,463.945593 787.007372,453.316922 C781.683471,442.688642 765.709812,435.856092 770.274162,442.688642 C774.837729,449.521192 766.470537,447.243675 766.470537,447.243675" id="Fill-151" fill="#3A79BB" mask="url(#mask-4)"></path>
                                <path d="M841.642489,458.631727 C841.642489,458.631727 861.418599,441.928636 843.163548,435.096087 C824.908497,428.263537 815.780971,420.671294 815.780971,420.671294 C815.780971,420.671294 818.99566,455.241426 824.908497,451.798786 C834.036414,446.48406 829.472064,458.631727 840.120648,459.390638" id="Fill-152" fill="#3A79BB" mask="url(#mask-4)"></path>
                                <path d="M798.416955,440.410657 C798.416955,440.410657 781.682571,425.226562 785.486196,444.96569 C789.289821,464.704818 805.262697,463.945515 799.177288,471.537758 C799.177288,471.537758 812.108439,466.982725 810.586989,448.761811 C809.06593,430.540897 801.459072,427.504078 798.416955,440.410657" id="Fill-153" fill="#3A79BB" mask="url(#mask-4)"></path>
                                <path d="M851.88097,435.638965 C848.09065,435.943623 839.491015,426.744893 839.455796,419.729548 C839.372054,403.078797 846.336757,399.413523 844.155542,396.65324 C851.162508,398.374559 859.524613,403.643196 864.094441,409.217272 C868.665052,414.790177 872.661597,422.694499 868.770317,427.425687 C864.878645,432.156485 857.634148,429.387219 857.634148,429.387219 C857.634148,429.387219 855.672073,435.333916 851.88097,435.638965" id="Fill-154" fill="#3A79BB" mask="url(#mask-4)"></path>
                                <path d="M749.736662,457.113239 C749.736662,457.113239 729.960553,440.410149 748.215604,433.577599 C766.470655,426.744659 775.59818,419.152807 775.59818,419.152807 C775.59818,419.152807 772.383491,453.722938 766.470655,450.280689 C757.342738,444.965573 761.907088,457.113239 751.258504,457.872151" id="Fill-155" fill="#3A79BB" mask="url(#mask-4)"></path>
                                <path d="M843.093854,464.378794 C826.40682,463.740574 831.283051,432.930239 835.314032,415.665093 C836.859353,434.4133 852.179117,440.193216 852.026893,450.254754 C851.868018,460.789294 839.53676,448.67014 843.093854,464.378794" id="Fill-156" fill="#535CC1" mask="url(#mask-4)"></path>
                                <polygon id="Fill-157" fill="#FFFFFF" mask="url(#mask-4)" points="927.699108 486.871526 710.050769 486.871526 725.097392 530.393536 908.892688 530.393536"></polygon>
                                <path d="M681.27983,485.203912 C681.27983,485.203912 685.083846,458.631063 694.970923,460.90897 C704.858782,463.186877 701.056331,466.474844 701.056331,466.474844 C701.056331,466.474844 715.507757,464.704701 715.507757,470.778338 C715.507757,476.852367 701.055548,473.056636 695.731648,476.093455 C690.407356,479.129884 693.450256,478.370581 690.407356,482.926005 C687.364847,487.481429 681.27983,485.203912 681.27983,485.203912" id="Fill-158" fill="#6DB9F8" mask="url(#mask-4)"></path>
                                <path d="M681.27983,485.203912 C681.27983,485.203912 685.083846,458.631063 694.970923,460.90897 C704.858782,463.186877 701.056331,466.474844 701.056331,466.474844 C701.056331,466.474844 715.507757,464.704701 715.507757,470.778338 C715.507757,476.852367 701.055548,473.056636 695.731648,476.093455 C690.407356,479.129884 693.450256,478.370581 690.407356,482.926005 C687.364847,487.481429 681.27983,485.203912 681.27983,485.203912 Z" id="Stroke-159" stroke="#FFFFFF" stroke-width="0.75" mask="url(#mask-4)"></path>
                                <path d="M684.322143,447.243675 C684.322143,447.243675 694.504274,475.187878 710.943994,466.982803 C715.508344,464.704896 711.705111,461.668077 711.705111,461.668077 C711.705111,461.668077 721.592579,470.020013 728.438712,466.223891 C735.284454,462.427379 724.63587,452.558011 715.508344,452.558011 C706.380819,452.558011 703.337919,447.243675 698.774352,445.72468 C694.210785,444.206856 691.928219,451.039796 684.322143,447.243675 Z" id="Stroke-160" stroke="#FFFFFF" stroke-width="0.75" mask="url(#mask-4)"></path>
                                <path d="M713.226248,422.948655 C713.226248,422.948655 701.816939,423.707566 698.774039,435.096321 C695.73153,446.484295 698.013705,451.79824 698.013705,451.79824 C698.013705,451.79824 713.226248,437.373447 721.593048,439.650964 C729.959849,441.928871 742.890216,430.540897 736.045257,425.226562 C729.199124,419.911836 718.550148,428.263381 718.550148,428.263381 C718.550148,428.263381 717.790206,422.189743 713.226248,422.948655 Z" id="Stroke-161" stroke="#FFFFFF" stroke-width="0.75" mask="url(#mask-4)"></path>
                                <path d="M745.932764,453.316844 C745.932764,453.316844 733.002396,447.242816 737.565963,461.667999 C742.130313,476.093182 752.778897,469.260632 761.146089,473.815275 L769.512889,478.370698 C769.512889,478.370698 771.794282,470.018763 766.46999,459.390482 C761.146089,448.761811 745.17243,441.929261 749.736389,448.761811 C754.300347,455.594751 745.932764,453.316844 745.932764,453.316844 Z" id="Stroke-162" stroke="#FFFFFF" stroke-width="0.75" mask="url(#mask-4)"></path>
                                <path d="M719.311186,427.504117 C714.346908,428.823523 709.863562,432.148595 707.140761,436.614574" id="Stroke-163" stroke="#FFFFFF" stroke-width="0.75" mask="url(#mask-4)"></path>
                                <path d="M714.747228,429.022605 C715.818823,430.034618 716.549592,433.732311 715.711168,435.855155" id="Stroke-164" stroke="#FFFFFF" stroke-width="0.75" mask="url(#mask-4)"></path>
                                <path d="M729.95977,427.504117 C730.376134,431.357265 728.721636,434.519072 725.396203,435.855272" id="Stroke-165" stroke="#FFFFFF" stroke-width="0.75" mask="url(#mask-4)"></path>
                                <path d="M750.497153,452.557815 C755.555347,455.998111 758.963348,461.004273 760.385403,466.982998" id="Stroke-166" stroke="#FFFFFF" stroke-width="0.75" mask="url(#mask-4)"></path>
                                <path d="M821.105068,464.704935 C821.105068,464.704935 840.881177,448.002235 822.626126,441.169686 C804.371075,434.336745 795.24355,426.744503 795.24355,426.744503 C795.24355,426.744503 798.458239,461.315025 804.371075,457.872385 C813.498992,452.557659 808.934251,464.704935 819.583226,465.464237" id="Stroke-167" stroke="#FFFFFF" stroke-width="0.75" mask="url(#mask-4)"></path>
                                <path d="M723.114733,392.580465 C723.114733,392.580465 713.2257,406.246346 716.2686,416.875017 C719.311108,427.504078 720.833341,428.2626 722.354008,421.43005 C723.874284,414.5975 720.072616,403.968439 723.114733,392.580465 Z" id="Stroke-168" stroke="#FFFFFF" stroke-width="0.75" mask="url(#mask-4)"></path>
                                <path d="M700.295528,394.098953 C700.295528,394.098953 703.337645,413.838862 707.901603,417.634593 C712.465953,421.430323 715.508462,420.671411 712.465953,415.356685 C709.423053,410.041959 700.295528,394.098953 700.295528,394.098953 Z" id="Stroke-169" stroke="#FFFFFF" stroke-width="0.75" mask="url(#mask-4)"></path>
                                <path d="M723.114733,416.875095 C729.611418,406.899877 734.447734,399.336147 747.930645,397.082066 C745.831999,406.015977 742.279601,418.462834 738.326884,425.22664" id="Stroke-170" stroke="#FFFFFF" stroke-width="0.75" mask="url(#mask-4)"></path>
                                <path d="M729.95977,422.189626 C731.225689,417.050273 734.290894,412.305805 738.326962,409.283438" id="Stroke-171" stroke="#FFFFFF" stroke-width="0.75" mask="url(#mask-4)"></path>
                                <path d="M752.018094,402.450068 C751.476508,406.254782 750.131934,410.278616 748.21486,413.838042" id="Stroke-172" stroke="#FFFFFF" stroke-width="0.75" mask="url(#mask-4)"></path>
                                <path d="M733.002435,396.376508 C737.007198,393.943538 741.382149,392.146053 745.932803,391.062173" id="Stroke-173" stroke="#FFFFFF" stroke-width="0.75" mask="url(#mask-4)"></path>
                                <path d="M736.805551,388.784461 C739.150337,387.601761 741.743611,386.817461 744.411627,386.506944" id="Stroke-174" stroke="#FFFFFF" stroke-width="0.75" mask="url(#mask-4)"></path>
                                <path d="M744.411823,441.169725 C736.045022,426.744542 764.749867,414.41369 781.529252,408.599402 C766.470107,419.911601 769.75132,435.926867 761.146206,441.169725 C752.136468,446.658653 755.821132,429.781361 744.411823,441.169725 Z" id="Stroke-175" stroke="#FFFFFF" stroke-width="0.75" mask="url(#mask-4)"></path>
                                <path d="M777.879572,446.484255 C777.879572,446.484255 761.145189,431.29977 764.948422,451.039289 C768.752047,470.778417 784.724923,470.018724 778.639906,477.610966 C778.639906,477.610966 791.571056,473.056324 790.049606,454.83541 C788.528548,436.614496 780.921298,433.577677 777.879572,446.484255 Z" id="Stroke-176" stroke="#FFFFFF" stroke-width="0.75" mask="url(#mask-4)"></path>
                                <path d="M777.879572,446.484255 C781.043781,452.496962 782.61532,459.241239 782.443531,466.223774" id="Stroke-177" stroke="#FFFFFF" stroke-width="0.75" mask="url(#mask-4)"></path>
                                <path d="M773.315966,450.279869 C770.240587,451.29071 768.719528,453.550259 769.512733,456.353898" id="Stroke-178" stroke="#FFFFFF" stroke-width="0.75" mask="url(#mask-4)"></path>
                                <path d="M780.161747,451.798357 C778.061536,453.048628 776.303338,455.766727 775.597398,458.630906" id="Stroke-179" stroke="#FFFFFF" stroke-width="0.75" mask="url(#mask-4)"></path>
                                <path d="M820.343834,459.390404 C820.343834,459.390404 825.038102,452.558245 823.517043,447.243519" id="Stroke-180" stroke="#FFFFFF" stroke-width="0.75" mask="url(#mask-4)"></path>
                                <path d="M780.922237,422.189626 C780.922237,422.189626 789.289038,410.04235 799.938013,405.486926" id="Stroke-181" stroke="#FFFFFF" stroke-width="0.75" mask="url(#mask-4)"></path>
                                <path d="M757.342542,419.15265 C755.060759,416.116222 748.975351,407.004984 764.187893,400.172434 C779.400827,393.339494 783.964002,398.65383 786.246177,391.820889 C788.528352,398.65383 788.528352,408.523979 786.246177,415.356529 C783.964002,422.189469 779.401218,429.781712 773.31581,429.0228 C767.230793,428.263498 765.709343,420.670865 765.709343,420.670865 C765.709343,420.670865 759.624326,422.188688 757.342542,419.15265" id="Fill-182" fill="#6DB9F8" mask="url(#mask-4)"></path>
                                <path d="M757.342542,419.15265 C755.060759,416.116222 748.975351,407.004984 764.187893,400.172434 C779.400827,393.339494 783.964002,398.65383 786.246177,391.820889 C788.528352,398.65383 788.528352,408.523979 786.246177,415.356529 C783.964002,422.189469 779.401218,429.781712 773.31581,429.0228 C767.230793,428.263498 765.709343,420.670865 765.709343,420.670865 C765.709343,420.670865 759.624326,422.188688 757.342542,419.15265 Z" id="Stroke-183" stroke="#FFFFFF" stroke-width="0.75" mask="url(#mask-4)"></path>
                                <g id="Group-186" mask="url(#mask-4)">
                                    <g transform="translate(765.420784, 404.414451)">
                                        <path d="M0.288519808,0.313134117 C2.00210754,6.00751143 2.02089088,11.62299 0.288519808,17.0158337" id="Fill-184" stroke="none" fill="#82BCFF" fill-rule="evenodd"></path>
                                        <path d="M0.288519808,0.313134117 C2.00210754,6.00751143 2.02089088,11.62299 0.288519808,17.0158337" id="Stroke-185" stroke="#FFFFFF" stroke-width="0.75" fill="none"></path>
                                    </g>
                                </g>
                                <g id="Group-189" mask="url(#mask-4)">
                                    <g transform="translate(765.420784, 402.070925)">
                                        <path d="M9.41612352,0.37914343 C8.23120832,7.05662986 4.82399014,13.8020785 0.288598072,18.5996666" id="Fill-187" stroke="none" fill="#82BCFF" fill-rule="evenodd"></path>
                                        <path d="M9.41612352,0.37914343 C8.23120832,7.05662986 4.82399014,13.8020785 0.288598072,18.5996666" id="Stroke-188" stroke="#FFFFFF" stroke-width="0.75" fill="none"></path>
                                    </g>
                                </g>
                                <path d="M831.343588,441.712134 C827.552877,442.017183 818.953633,432.818062 818.918414,425.802718 C818.835063,409.152357 825.798983,405.487082 823.61816,402.726799 C830.625126,404.448119 838.986839,409.716756 843.55745,415.290442 C848.127669,420.863737 852.124215,428.768059 848.232934,433.499247 C844.340871,438.230045 837.096375,435.460778 837.096375,435.460778 C837.096375,435.460778 835.134691,441.407475 831.343588,441.712134" id="Fill-190" fill="#6DB9F8" mask="url(#mask-4)"></path>
                                <path d="M831.343588,441.712134 C827.552877,442.017183 818.953633,432.818062 818.918414,425.802718 C818.835063,409.152357 825.798983,405.487082 823.61816,402.726799 C830.625126,404.448119 838.986839,409.716756 843.55745,415.290442 C848.127669,420.863737 852.124215,428.768059 848.232934,433.499247 C844.340871,438.230045 837.096375,435.460778 837.096375,435.460778 C837.096375,435.460778 835.134691,441.407475 831.343588,441.712134 Z" id="Stroke-191" stroke="#FFFFFF" stroke-width="0.75" mask="url(#mask-4)"></path>
                                <g id="Group-194" mask="url(#mask-4)">
                                    <g transform="translate(826.466613, 417.694431)">
                                        <path d="M0.0657416624,0.336413141 C5.090283,4.90082039 8.98665046,11.3779354 10.6298007,17.7663869" id="Fill-192" stroke="none" fill="#82BCFF" fill-rule="evenodd"></path>
                                        <path d="M0.0657416624,0.336413141 C5.090283,4.90082039 8.98665046,11.3779354 10.6298007,17.7663869" id="Stroke-193" stroke="#FFFFFF" stroke-width="0.75" fill="none"></path>
                                    </g>
                                </g>
                                <g id="Group-197" mask="url(#mask-4)">
                                    <g transform="translate(719.636412, 425.115596)">
                                        <path d="M9.56286831,38.071203 C9.56286831,38.071203 -10.2132412,21.3681128 8.0414184,14.5351725 C26.2964693,7.70262277 35.4243861,0.110770657 35.4243861,0.110770657 C35.4243861,0.110770657 32.2096971,34.6809022 26.2964693,31.2382627 C17.1689439,25.9235365 21.7332936,38.071203 11.0843182,38.8301148" id="Fill-195" stroke="none" fill="#6DB9F8" fill-rule="evenodd"></path>
                                        <path d="M9.56286831,38.071203 C9.56286831,38.071203 -10.2132412,21.3681128 8.0414184,14.5351725 C26.2964693,7.70262277 35.4243861,0.110770657 35.4243861,0.110770657 C35.4243861,0.110770657 32.2096971,34.6809022 26.2964693,31.2382627 C17.1689439,25.9235365 21.7332936,38.071203 11.0843182,38.8301148" id="Stroke-196" stroke="#FFFFFF" stroke-width="0.75" fill="none"></path>
                                    </g>
                                </g>
                                <path d="M886.549445,451.726645 C886.549445,451.726645 902.206917,431.126271 910.014131,448.957769 C917.822127,466.788876 925.902873,475.482576 925.902873,475.482576 C925.902873,475.482576 891.145883,474.118644 894.275264,468.041881 C899.106885,458.660747 887.196687,463.857125 885.870506,453.283137 L886.549445,451.726645 Z" id="Fill-198" fill="#82BCFF" mask="url(#mask-4)"></path>
                                <path d="M886.549445,451.726645 C886.549445,451.726645 902.206917,431.126271 910.014131,448.957769 C917.822127,466.788876 925.902873,475.482576 925.902873,475.482576 C925.902873,475.482576 891.145883,474.118644 894.275264,468.041881 C899.106885,458.660747 887.196687,463.857125 885.870506,453.283137 L886.549445,451.726645 Z" id="Stroke-199" stroke="#FFFFFF" stroke-width="0.75" mask="url(#mask-4)"></path>
                                <path d="M898.819422,467.74191 C884.034983,472.199687 870.557159,480.637161 860.027536,492.036462" id="Stroke-200" stroke="#FFFFFF" stroke-width="0.8" mask="url(#mask-4)"></path>
                                <path d="M743.65098,485.962941 C744.08691,481.599296 748.195373,473.592249 749.95631,471.834605" id="Stroke-201" stroke="#FFFFFF" stroke-width="0.8" mask="url(#mask-4)"></path>
                                <path d="M815.107667,487.457798 C815.107667,487.457798 825.266711,475.025784 820.343912,459.39056 C818.193221,452.55762 813.49817,448.002196 808.173878,441.928949" id="Stroke-202" stroke="#FFFFFF" stroke-width="0.8" mask="url(#mask-4)"></path>
                                <path d="M729.19928,487.481429 C725.583489,478.012022 713.226404,457.87176 700.295645,454.07642" id="Stroke-203" stroke="#FFFFFF" stroke-width="0.8" mask="url(#mask-4)"></path>
                                <path d="M729.95977,495.073867 C726.343979,485.60446 724.635087,479.888991 715.507562,473.056441" id="Stroke-204" stroke="#FFFFFF" stroke-width="0.8" mask="url(#mask-4)"></path>
                                <path d="M753.539818,488.999565 C757.027256,477.061253 762.385202,471.924635 774.076261,467.741832" id="Stroke-205" stroke="#FFFFFF" stroke-width="0.8" mask="url(#mask-4)"></path>
                                <path d="M747.454488,488.999565 C749.369996,482.44316 752.76704,476.792529 757.376391,472.338267" id="Stroke-206" stroke="#FFFFFF" stroke-width="0.8" mask="url(#mask-4)"></path>
                                <path d="M869.154827,488.999565 C877.766202,480.828081 888.522008,476.570285 900.341028,476.852289" id="Stroke-207" stroke="#FFFFFF" stroke-width="0.8" mask="url(#mask-4)"></path>
                                <path d="M785.485844,488.999565 C792.512766,481.117115 793.173314,470.996599 790.048237,460.908892" id="Stroke-208" stroke="#FFFFFF" stroke-width="0.8" mask="url(#mask-4)"></path>
                                <path d="M790.810292,488.240887 C798.122096,477.945387 801.30861,466.165264 812.107852,459.390521" id="Stroke-209" stroke="#FFFFFF" stroke-width="0.8" mask="url(#mask-4)"></path>
                                <path d="M846.336013,488.999565 C847.415664,479.945743 846.969951,463.814864 843.867962,455.429728" id="Stroke-210" stroke="#FFFFFF" stroke-width="0.8" mask="url(#mask-4)"></path>
                                <path d="M841.772407,488.240887 C841.512571,481.023218 830.445667,465.626253 825.79914,460.149433" id="Stroke-211" stroke="#FFFFFF" stroke-width="0.8" mask="url(#mask-4)"></path>
                                <path d="M738.217197,489.801324 C738.217197,489.801324 725.396008,479.130079 729.199241,463.186682 C733.002474,447.243675 738.326767,442.687861 742.130391,440.410344" id="Stroke-212" stroke="#FFFFFF" stroke-width="0.8" mask="url(#mask-4)"></path>
                                <path d="M833.405646,427.504117 C835.273413,424.4548 835.293371,420.534471 833.405646,417.634358" id="Stroke-213" stroke="#FFFFFF" stroke-width="0.75" mask="url(#mask-4)"></path>
                                <path d="M836.447567,433.577677 C840.035966,430.518985 841.945996,426.155731 841.772251,421.430011" id="Stroke-214" stroke="#FFFFFF" stroke-width="0.75" mask="url(#mask-4)"></path>
                                <path d="M795.373898,394.098953 C795.373898,394.098953 784.725314,394.857864 791.571056,386.507101 C798.416016,378.155946 805.262931,372.840829 813.629341,371.322615 C821.996141,369.80401 829.602608,370.563313 829.602608,370.563313 C829.602608,370.563313 814.390066,371.322615 811.347166,374.359434 C808.304657,377.396253 806.782816,386.50671 803.740699,391.062134 C800.69819,395.617557 792.33139,400.931502 795.373898,394.098953" id="Fill-215" fill="#6DB9F8" mask="url(#mask-4)"></path>
                                <path d="M795.373898,394.098953 C795.373898,394.098953 784.725314,394.857864 791.571056,386.507101 C798.416016,378.155946 805.262931,372.840829 813.629341,371.322615 C821.996141,369.80401 829.602608,370.563313 829.602608,370.563313 C829.602608,370.563313 814.390066,371.322615 811.347166,374.359434 C808.304657,377.396253 806.782816,386.50671 803.740699,391.062134 C800.69819,395.617557 792.33139,400.931502 795.373898,394.098953 Z" id="Stroke-216" stroke="#FFFFFF" stroke-width="0.75" mask="url(#mask-4)"></path>
                                <path d="M765.709304,391.062017 C765.709304,391.062017 767.231536,379.673652 774.076496,374.359317 C780.922237,369.045372 788.528313,366.767465 788.528313,366.767465 C788.528313,366.767465 777.118221,375.877531 774.836829,381.192257 C772.555437,386.506983 771.033596,397.894957 768.751812,394.858138 C766.470029,391.820928 765.709304,391.062017 765.709304,391.062017" id="Fill-217" fill="#6DB9F8" mask="url(#mask-4)"></path>
                                <path d="M765.709304,391.062017 C765.709304,391.062017 767.231536,379.673652 774.076496,374.359317 C780.922237,369.045372 788.528313,366.767465 788.528313,366.767465 C788.528313,366.767465 777.118221,375.877531 774.836829,381.192257 C772.555437,386.506983 771.033596,397.894957 768.751812,394.858138 C766.470029,391.820928 765.709304,391.062017 765.709304,391.062017 Z" id="Stroke-218" stroke="#FFFFFF" stroke-width="0.75" mask="url(#mask-4)"></path>
                                <path d="M801.459228,381.951482 C801.459228,381.951482 799.176662,386.506905 795.37382,394.099148 C791.570978,401.690609 788.52847,427.504157 795.37382,435.096009" id="Stroke-219" stroke="#FFFFFF" stroke-width="0.75" mask="url(#mask-4)"></path>
                                <path d="M765.709304,391.821045 C765.33442,393.586502 763.417737,401.728301 764.187854,399.66717" id="Stroke-220" stroke="#FFFFFF" stroke-width="0.75" mask="url(#mask-4)"></path>
                                <path d="M796.895231,421.430167 C796.895231,421.430167 794.613056,404.727467 807.544206,395.617401 C820.474965,386.506944 825.038141,387.266247 825.038141,387.266247 C825.038141,387.266247 812.868498,404.727467 812.868498,413.079013 C812.868498,421.430167 806.022365,431.300708 802.979857,425.985591 C799.937739,420.670865 800.698073,422.189469 796.895231,421.430167" id="Fill-221" fill="#6DB9F8" mask="url(#mask-4)"></path>
                                <path d="M796.895231,421.430167 C796.895231,421.430167 794.613056,404.727467 807.544206,395.617401 C820.474965,386.506944 825.038141,387.266247 825.038141,387.266247 C825.038141,387.266247 812.868498,404.727467 812.868498,413.079013 C812.868498,421.430167 806.022365,431.300708 802.979857,425.985591 C799.937739,420.670865 800.698073,422.189469 796.895231,421.430167 Z" id="Stroke-222" stroke="#FFFFFF" stroke-width="0.75" mask="url(#mask-4)"></path>
                                <path d="M807.544167,405.487043 C807.544167,405.487043 799.177367,423.70991 800.698425,430.54246" id="Stroke-223" stroke="#FFFFFF" stroke-width="0.75" mask="url(#mask-4)"></path>
                                <path d="M851.660853,463.186799 C851.660853,463.186799 850.139012,474.573991 860.027654,471.537953 C862.309046,480.64802 869.154788,478.370894 873.718355,473.81547 C878.282705,469.260046 879.803763,463.945711 879.04343,452.557737 C878.282705,441.169764 881.324822,439.65155 884.36733,436.614731 C872.958021,438.891857 864.590438,441.929066 862.309046,447.243792 C860.027654,452.557737 854.703362,458.630985 851.660853,463.186799 Z" id="Stroke-224" stroke="#FFFFFF" stroke-width="0.75" mask="url(#mask-4)"></path>
                                <path d="M867.633886,403.209488 C867.633886,403.209488 854.703518,405.487004 852.421343,413.838159 C850.139169,422.189704 849.378835,428.263732 849.378835,428.263732 C849.378835,428.263732 850.139169,441.16992 858.50636,429.781165 C861.548869,438.13232 866.87277,444.206739 869.915669,433.577677 C872.957786,422.948616 869.915669,428.262951 869.154944,419.911797 C868.394219,411.560642 860.788144,415.356763 867.633886,403.209488 Z" id="Stroke-225" stroke="#FFFFFF" stroke-width="0.75" mask="url(#mask-4)"></path>
                                <path d="M856.971175,420.579194 C859.948725,433.245951 860.093904,443.669564 852.861539,451.290319" id="Stroke-226" stroke="#FFFFFF" stroke-width="0.75" mask="url(#mask-4)"></path>
                                <path d="M861.548947,469.260007 C866.654883,469.817766 870.739866,467.726169 872.957865,463.18676" id="Stroke-227" stroke="#FFFFFF" stroke-width="0.75" mask="url(#mask-4)"></path>
                                <path d="M864.591221,462.427379 C867.696732,460.984549 870.07791,458.676957 871.436963,455.59483" id="Stroke-228" stroke="#FFFFFF" stroke-width="0.75" mask="url(#mask-4)"></path>
                                <path d="M858.78181,425.98563 C860.667187,426.479723 861.972629,424.826366 863.322681,422.189509" id="Stroke-229" stroke="#FFFFFF" stroke-width="0.75" mask="url(#mask-4)"></path>
                                <path d="M883.606879,407.005531 C883.606879,407.005531 863.069653,427.503961 866.872496,433.577599 C870.676512,439.650846 876.761137,429.022175 878.282979,422.948537 C879.803646,416.87529 883.606879,407.005531 883.606879,407.005531 Z" id="Stroke-230" stroke="#FFFFFF" stroke-width="0.75" mask="url(#mask-4)"></path>
                                <path d="M842.532858,391.821045 C842.532858,391.821045 835.687899,419.911328 840.251466,418.393114 C844.814642,416.87529 843.293192,410.04235 843.293192,406.246619 C843.293192,402.450107 842.532858,391.821045 842.532858,391.821045 Z" id="Stroke-231" stroke="#FFFFFF" stroke-width="0.75" mask="url(#mask-4)"></path>
                                <path d="M823.626887,486.286035 C823.626887,486.286035 831.123393,464.704896 830.363059,456.353741 L829.602725,448.002587" id="Stroke-232" stroke="#FFFFFF" stroke-width="0.75" mask="url(#mask-4)"></path>
                                <path d="M802.496773,488.04368 C802.496773,488.04368 809.825794,465.463808 809.065069,457.112653 L808.304736,448.761499" id="Stroke-233" stroke="#FFFFFF" stroke-width="0.75" mask="url(#mask-4)"></path>
                                <path d="M877.521588,473.81547 C877.521588,473.81547 873.718355,457.872463 885.127664,456.353859 C896.537756,454.835254 891.213072,458.630985 898.058814,462.427496 C904.904556,466.223618 914.793198,454.835254 918.59604,466.223618 C922.398882,477.611982 925.44139,482.167015 925.44139,482.167015 C925.44139,482.167015 910.228848,463.187189 905.665281,466.98292 C901.101714,470.778651 904.144222,477.611982 897.29848,478.370894 C890.452347,479.130196 879.803763,481.407322 879.803763,481.407322 L877.521588,473.81547 Z" id="Fill-234" fill="#82BCFF" mask="url(#mask-4)"></path>
                                <path d="M877.521588,473.81547 C877.521588,473.81547 873.718355,457.872463 885.127664,456.353859 C896.537756,454.835254 891.213072,458.630985 898.058814,462.427496 C904.904556,466.223618 914.793198,454.835254 918.59604,466.223618 C922.398882,477.611982 925.44139,482.167015 925.44139,482.167015 C925.44139,482.167015 910.228848,463.187189 905.665281,466.98292 C901.101714,470.778651 904.144222,477.611982 897.29848,478.370894 C890.452347,479.130196 879.803763,481.407322 879.803763,481.407322 L877.521588,473.81547 Z" id="Stroke-235" stroke="#FFFFFF" stroke-width="0.75" mask="url(#mask-4)"></path>
                                <path d="M899.07241,447.750228 C894.819942,449.884009 891.476117,453.829334 891.466334,455.34208" id="Stroke-236" stroke="#FFFFFF" stroke-width="0.75" mask="url(#mask-4)"></path>
                                <path d="M904.143518,454.076303 C900.160669,454.202463 897.082942,456.468652 895.776718,460.14955" id="Stroke-237" stroke="#FFFFFF" stroke-width="0.75" mask="url(#mask-4)"></path>
                                <path d="M879.803763,480.648059 C884.622862,476.030141 890.6934,472.135201 896.537756,470.019388" id="Stroke-238" stroke="#FFFFFF" stroke-width="0.75" mask="url(#mask-4)"></path>
                                <path d="M747.770908,499.95508 C768.290134,498.17439 780.590477,491.328561 805.841145,490.405212 C819.084959,489.921273 836.531544,496.04061 850.189766,496.439791 C860.450944,496.739762 916.282833,490.916491 925.60641,491.522683 L927.786059,486.480587 L709.115985,486.480587 L712.799866,497.136208 C723.696547,496.796007 738.659818,500.745238 747.770908,499.95508" id="Fill-239" fill="#4C8CC9" mask="url(#mask-4)"></path>
                                <path d="M888.191147,441.761348 C888.191147,441.761348 883.495314,422.428431 895.821484,421.256668 C908.147655,420.084905 911.082159,420.085296 914.017055,414.812362 C912.843097,424.186075 916.36458,427.700583 912.256117,432.387635 C908.147655,437.074687 896.995443,448.791535 891.713022,448.205653 C886.430601,447.619772 883.495314,444.104483 888.191147,441.761348" id="Fill-240" fill="#82BCFF" mask="url(#mask-4)"></path>
                                <path d="M888.191147,441.761348 C888.191147,441.761348 883.495314,422.428431 895.821484,421.256668 C908.147655,420.084905 911.082159,420.085296 914.017055,414.812362 C912.843097,424.186075 916.36458,427.700583 912.256117,432.387635 C908.147655,437.074687 896.995443,448.791535 891.713022,448.205653 C886.430601,447.619772 883.495314,444.104483 888.191147,441.761348 Z" id="Stroke-241" stroke="#FFFFFF" stroke-width="0.75" mask="url(#mask-4)"></path>
                                <path d="M904.038801,448.205653 C904.038801,448.205653 901.103905,430.0445 911.082159,430.0445 C921.060413,430.0445 925.756246,430.044109 931.625646,425.357448 C929.864709,434.731161 935.734109,433.559398 927.516792,441.175466 C919.299476,448.791535 908.147264,447.03389 904.038801,448.205653" id="Fill-242" fill="#82BCFF" mask="url(#mask-4)"></path>
                                <path d="M904.038801,448.205653 C904.038801,448.205653 901.103905,430.0445 911.082159,430.0445 C921.060413,430.0445 925.756246,430.044109 931.625646,425.357448 C929.864709,434.731161 935.734109,433.559398 927.516792,441.175466 C919.299476,448.791535 908.147264,447.03389 904.038801,448.205653 Z" id="Stroke-243" stroke="#FFFFFF" stroke-width="0.75" mask="url(#mask-4)"></path>
                                <path d="M915.191013,439.418173 C907.09618,442.930728 899.026391,450.320256 894.060938,458.75109" id="Stroke-244" stroke="#FFFFFF" stroke-width="0.75" mask="url(#mask-4)"></path>
                                <path d="M910.49518,434.731122 C908.437231,437.024652 907.114572,440.303245 906.973697,443.518953" id="Stroke-245" stroke="#FFFFFF" stroke-width="0.75" mask="url(#mask-4)"></path>
                                <path d="M887.604559,442.347229 C895.394164,441.697291 900.361572,437.802742 901.691276,430.0445" id="Stroke-246" stroke="#FFFFFF" stroke-width="0.75" mask="url(#mask-4)"></path>
                                <path d="M892.88698,441.761348 C891.979902,437.278573 892.748453,433.02937 895.234505,430.630381" id="Stroke-247" stroke="#FFFFFF" stroke-width="0.75" mask="url(#mask-4)"></path>
                                <path d="M786.062101,437.075038 C783.607745,434.267494 780.128524,433.112136 776.671217,434.145631" id="Stroke-248" stroke="#FFFFFF" stroke-width="0.75" mask="url(#mask-4)"></path>
                                <path d="M787.823038,442.933462 C785.388249,436.718822 784.935883,429.672621 786.64908,423.014664" id="Stroke-249" stroke="#FFFFFF" stroke-width="0.75" mask="url(#mask-4)"></path>
                                <path d="M843.976631,455.23584 C844.173074,451.135061 840.333056,448.330641 838.890653,444.690365" id="Stroke-250" stroke="#FFFFFF" stroke-width="0.75" mask="url(#mask-4)"></path>
                                <path d="M842.999076,451.135061 C844.338563,448.973549 844.934933,446.637444 844.760014,444.104483" id="Stroke-251" stroke="#FFFFFF" stroke-width="0.75" mask="url(#mask-4)"></path>
                            </g>
                            <g id="Group-427" stroke="none" stroke-width="1" fill="none" fill-rule="evenodd" transform="translate(992.144733, 219.842258)">
                                <path d="M224.365885,179.735546 C224.365885,179.735546 241.875081,180.458914 243.732674,181.131506 C244.954373,181.574042 248.058319,182.599335 243.371878,182.958675 C238.685436,183.318407 224.266098,182.211091 224.266098,182.211091 L224.365885,179.735546 Z" id="Fill-253" fill="#FFA481"></path>
                                <path d="M207.992767,185.818636 C209.090027,186.652931 214.581021,189.208937 219.08002,190.245166 C223.57902,191.281395 226.906409,191.677451 230.297583,191.416929 C233.421877,191.177108 233.412094,183.817656 229.259021,183.126706 C225.106339,182.435757 222.683681,180.017629 219.222852,179.67274 C215.762023,179.32707 209.879318,177.599891 208.148904,178.290841 C206.41888,178.98179 205.49928,183.922724 207.992767,185.818636" id="Fill-255" fill="#FFA481"></path>
                                <path d="M213.588948,182.203787 C213.588948,182.203787 216.969948,187.320094 217.950986,188.408271 C218.932415,189.49723 220.023022,190.476824 221.550342,190.040928 C223.076879,189.605813 239.544774,185.904605 241.180489,185.578464 C242.816204,185.251542 242.707417,183.618886 242.707417,183.618886 L213.807304,181.006245 C213.807304,181.006245 213.261414,181.44175 213.588948,182.203787" id="Fill-257" fill="#FFFFFF"></path>
                                <path d="M214.57069,180.570857 C214.57069,180.570857 231.946055,176.844651 234.200837,176.32595 C235.618588,175.999028 236.164087,176.870039 237.472659,177.958997 C238.539005,178.845241 241.399158,181.54967 242.380196,182.857357 C243.361625,184.164654 242.707339,184.488451 241.072015,184.814982 C239.435517,185.141514 223.730695,189.061842 221.767837,189.388373 C219.804587,189.714904 219.478227,188.73492 218.496798,187.755326 C217.515369,186.776123 214.897833,183.183498 214.243547,182.203904 C213.58887,181.223919 213.58887,180.788805 214.57069,180.570857" id="Fill-259" fill="#FFFFFF"></path>
                                <polygon id="Fill-261" fill="#535CC1" points="222.531575 188.408193 240.743972 184.380844 233.000935 176.978427 216.315075 180.680026"></polygon>
                                <path d="M208.14906,178.290645 C208.14906,178.290645 213.236995,176.909137 215.931229,176.218187 C217.641687,175.779557 219.1107,175.341318 220.643107,175.344443 C221.525923,175.346396 228.460886,178.787473 227.558895,179.82917 C226.420938,181.142326 221.428093,178.917929 221.428093,178.917929 C221.428093,178.917929 219.822118,181.054053 216.529557,181.054053 C213.236995,181.054053 210.244184,181.054053 208.14906,178.290645" id="Fill-263" fill="#FFA481"></path>
                                <path d="M226.203638,190.495767 C226.203638,190.495767 229.894954,187.386689 230.471759,187.04141 C231.048564,186.69574 229.780298,184.738896 230.587198,183.47222 C231.394882,182.205154 231.971295,182.320768 231.971295,182.320768 C231.971295,182.320768 233.470831,185.775125 233.239953,186.811354 C233.009857,187.847583 231.971295,189.920041 231.048564,190.61099 C230.125441,191.301549 227.819005,191.877276 226.203638,190.495767" id="Fill-265" fill="#FFA481"></path>
                                <path d="M229.087701,190.135684 C229.087701,190.135684 232.779017,187.026997 233.355431,186.681327 C233.932627,186.335657 232.66397,184.378813 233.471653,183.112528 C234.278945,181.845462 234.85575,181.960685 234.85575,181.960685 C234.85575,181.960685 236.354503,185.415042 236.124407,186.451271 C235.89392,187.487891 234.85575,189.559958 233.932627,190.250908 C233.009505,190.941857 230.702677,191.517193 229.087701,190.135684" id="Fill-267" fill="#FFA481"></path>
                                <path d="M232.066542,189.145115 C232.066542,189.145115 235.676855,185.943077 236.24466,185.583346 C236.812855,185.223224 235.4945,183.29919 236.268921,182.012203 C237.043734,180.725217 237.623278,180.825598 237.623278,180.825598 C237.623278,180.825598 239.210861,184.240897 239.006592,185.282594 C238.802715,186.324291 237.817764,188.422528 236.913425,189.136913 C236.00752,189.850907 233.716345,190.485221 232.066542,189.145115" id="Fill-269" fill="#FFA481"></path>
                                <path d="M141.707327,84.7634174 C152.46235,79.333468 160.382264,93.769978 164.295458,101.581731 C168.208652,109.393484 167.184961,140.531912 177.600318,151.57695 C190.12254,164.85693 210.47115,177.355735 210.47115,177.355735 L208.905872,186.729838 C208.905872,186.729838 183.07879,183.605137 165.860736,167.981631 C148.642681,152.358125 141.598932,128.922866 139.251015,114.080536 C136.903099,99.2382051 136.338034,87.4744863 141.707327,84.7634174" id="Fill-271" fill="#E3E2E8"></path>
                                <path d="M243.480938,93.1642938 C243.480938,93.1642938 245.114306,89.4728499 249.181288,87.7745748 C253.249445,86.0762997 252.349019,87.0652676 254.464492,85.0724895 C256.580356,83.0793207 263.796677,78.2282221 256.625358,87.3336013 C254.690674,89.7907882 255.890851,88.4721643 252.470719,92.8920542 C249.050196,97.3123346 249.275596,98.7200125 246.12391,98.8703887 C242.971832,99.0211555 241.155718,97.3740474 243.480938,93.1642938" id="Fill-273" fill="#EF967B"></path>
                                <path d="M242.333707,84.1216819 L246.117766,75.6974876 C246.117766,75.6974876 251.593107,68.0263462 253.078556,66.0632526 C254.564004,64.1005497 254.444652,68.2052353 252.358919,70.8268596 C250.27397,73.4488745 248.699692,76.8352694 248.699692,76.8352694 L245.999979,83.1124035 L242.333707,84.1216819 Z" id="Fill-275" fill="#FFA481"></path>
                                <path d="M237.308461,106.069739 L246.084973,101.349097 C246.084973,101.349097 250.171131,99.3528035 250.980379,93.993941 C251.789237,88.6350784 251.619795,85.0963544 251.619795,85.0963544 C251.619795,85.0963544 246.969747,72.7002742 242.333785,84.1218382 C241.700239,85.6822358 241.85755,92.913185 241.85755,92.913185 L234.344608,96.4589396 L237.308461,106.069739 Z" id="Fill-277" fill="#FFA481"></path>
                                <path d="M259.510517,73.4486011 C259.510517,73.4486011 261.975046,72.9763806 256.574056,78.9090164 C251.173456,84.8420427 249.181249,87.7745748 249.181249,87.7745748 L247.931375,83.9327547 C247.931375,83.9327547 257.079249,74.6289569 259.510517,73.4486011" id="Fill-279" fill="#FFA481"></path>
                                <path d="M246.689445,81.0295948 C246.689445,81.0295948 249.929569,76.1452963 251.879905,74.002923 C253.830241,71.8605498 259.562679,69.5373345 259.562679,69.5373345 C259.562679,69.5373345 261.963815,70.210317 258.303022,72.9081059 L254.641838,75.6051136 L250.066922,82.2872871 L246.689445,81.0295948 Z" id="Fill-281" fill="#FFA481"></path>
                                <path d="M244.483303,81.1352488 C244.483303,81.1352488 247.197886,75.1725378 249.763376,72.6852756 C252.329649,70.1980135 256.801256,67.9353392 256.801256,67.9353392 C256.801256,67.9353392 259.171869,67.9794756 256.006486,71.1260497 C252.840321,74.2722332 251.879631,74.0031183 251.879631,74.0031183 L248.414889,80.7899693 L244.483303,81.1352488 Z" id="Fill-283" fill="#FFA481"></path>
                                <path d="M137.330185,67.5304561 C133.60365,62.4446143 134.844915,57.9469975 141.260597,53.17636" id="Stroke-285" stroke="#D82E2F" stroke-width="4.008"></path>
                                <path d="M29.0818418,323.338298 L246.126375,323.338298" id="Stroke-287" stroke="#AAB0B5" stroke-width="8" stroke-linecap="round"></path>
                                <path d="M93.4064975,261.806994 C112.075173,265.950348 146.647852,280.186487 150.766489,266.319063 C153.471289,230.1858 167.03442,157.826313 161.947268,119.939311 C159.599351,123.845188 131.480312,152.638919 126.813828,154.114949 C117.979009,186.948138 110.510678,221.317507 97.300517,252.655135 L93.4064975,261.806994 Z" id="Fill-289" fill="#F2F0F8"></path>
                                <path d="M111.165668,191.301745 C111.63173,224.790339 124.210693,217.811319 135.787878,245.544604 C144.592173,266.635166 145.380291,302.134505 156.847515,317.9701 C156.831862,318.003691 162.989664,318.550513 162.993186,318.553247 C163.251066,318.28921 163.511684,318.028688 163.775825,317.772072 C164.10062,295.630049 171.602213,272.463905 168.862978,241.998068 C166.359707,214.15659 156.469109,182.042865 141.470618,170.129941 C141.077342,170.129551 115.342221,165.999477 109.600391,171.772362 L111.165668,191.301745 Z" id="Fill-291" fill="#69636A"></path>
                                <path d="M134.644834,221.767581 C139.927646,216.067736 145.174456,208.527051 148.732333,201.457024" id="Stroke-293" stroke="#4A5656" stroke-width="0.75"></path>
                                <path d="M139.340667,222.548757 C145.668302,218.262448 152.12742,213.695697 158.123999,209.268777" id="Stroke-295" stroke="#4A5656" stroke-width="0.75"></path>
                                <path d="M145.818451,205.935814 C142.675765,235.496268 130.954574,261.710949 121.670521,277.634817 C117.075648,285.516485 108.974945,302.508219 90.6791968,317.787618 C90.7465037,317.499364 88.7257302,311.451114 88.5390709,311.236682 C94.3223806,304.920098 103.094588,159.009052 137.961931,173.298701 C147.837659,177.34597 147.459253,190.502134 145.818451,205.935814" id="Fill-297" fill="#5E5652"></path>
                                <path d="M91.066603,317.849448 C121.339465,290.883276 111.938016,246.814834 128.708792,206.374171 C132.199752,197.956226 128.175424,184.930127 124.801859,174.070229 C88.1575344,185.001605 91.7835002,291.180123 84.7600993,317.635406 C84.945976,317.850229 91.3393526,317.53893 91.066603,317.849448" id="Fill-299" fill="#69636A"></path>
                                <path d="M92.2359828,160.986558 C102.801216,121.734452 105.736111,69.0078539 136.383466,69.7487986 C146.219671,69.7487986 151.381956,73.8499689 151.381956,73.8499689 C151.381956,73.8499689 169.152554,82.1358953 161.036589,132.63341 C157.412189,155.187503 150.080037,177.159621 150.080037,177.159621 C150.080037,177.159621 146.147277,178.91414 146.166451,178.332165 C144.729526,195.713315 142.38161,209.383883 135.33786,236.725018 C128.169671,264.547748 117.600134,270.120262 103.419501,270.479603 C77.7348591,271.130322 50.5628126,255.308397 50.5628126,255.308397 C50.5628126,255.308397 81.4911342,200.905397 92.2359828,160.986558" id="Fill-301" fill="#F2F0F8"></path>
                                <path d="M146.526974,106.410722 C146.526974,106.410722 145.16753,91.4594177 141.707484,84.7635737 C137.505887,76.6334918 134.478249,70.3317507 134.478249,70.3317507 L153.7566,70.3317507 C153.7566,70.3317507 155.563713,94.985643 146.526974,106.410722" id="Fill-303" fill="#69636A"></path>
                                <path d="M146.438692,106.18547 C149.6886,127.94628 148.905961,139.273322 146.166725,177.160324" id="Stroke-305" stroke="#68482F" stroke-width="0.75"></path>
                                <path d="M143.823661,123.245675 C143.633088,122.29225 142.704096,121.67395 141.748494,121.864166 C140.794066,122.054383 140.174216,122.981638 140.364789,123.935062 C140.555361,124.888487 141.483962,125.506787 142.439564,125.316571 C143.394384,125.125964 144.014234,124.199099 143.823661,123.245675 Z" id="Stroke-307" stroke="#68482F" stroke-width="0.75"></path>
                                <path d="M143.246582,143.452102 C143.05601,142.498677 142.127017,141.879987 141.172198,142.070203 C140.216596,142.26081 139.597137,143.188065 139.78771,144.141489 C139.978282,145.094914 140.906883,145.713604 141.862877,145.522998 C142.817696,145.332391 143.437155,144.405526 143.246582,143.452102 Z" id="Stroke-309" stroke="#68482F" stroke-width="0.75"></path>
                                <path d="M142.07188,162.981484 C141.881308,162.02806 140.952707,161.40976 139.997496,161.599976 C139.041894,161.790192 138.422436,162.717447 138.613008,163.670871 C138.803581,164.624296 139.732573,165.242987 140.688175,165.05238 C141.642994,164.861773 142.262453,163.934909 142.07188,162.981484 Z" id="Stroke-311" stroke="#68482F" stroke-width="0.75"></path>
                                <path d="M99.3240689,318.414745 C94.8415049,318.580745 89.1579817,317.383984 84.639025,317.210173 L83.9784778,322.893223 L88.0200248,323.81501 L88.2837741,322.262815 C96.2150361,324.070064 101.223925,326.026517 107.977315,319.170923 C107.087846,316.719204 103.80585,318.248355 99.3240689,318.414745" id="Fill-313" fill="#5C4033"></path>
                                <path d="M170.21209,318.051616 C169.195443,318.17387 167.576945,317.804764 166.117715,317.367306 C165.847705,316.079539 165.584347,314.715216 164.969975,313.529392 C164.695661,313.539157 164.421346,313.542281 164.147031,313.537985 C163.341304,314.547654 163.131948,315.431554 163.130774,316.334202 C162.964463,316.268974 162.868981,316.229915 162.868981,316.229915 C162.868981,316.229915 157.736436,317.183339 155.477349,317.28333 L155.29069,323.783489 C155.29069,323.783489 172.737275,325.87118 178.89899,318.480872 C177.808383,316.111176 174.665697,317.515339 170.21209,318.051616" id="Fill-315" fill="#D3C7C7"></path>
                                <path d="M155.268971,318.920908 L155.082312,323.466176 C155.082312,323.466176 157.289354,323.729823 160.409343,323.737634 C160.464519,322.999033 156.961819,318.846305 155.268971,318.920908" id="Fill-317" fill="#FFFFFF"></path>
                                <path d="M174.252933,317.038158 C173.956313,318.611445 173.617039,320.17653 173.191675,321.723257 C173.181109,321.761144 173.169369,321.799031 173.159586,321.836918 C175.354497,321.002232 177.307964,319.822267 178.690886,318.163441 C177.991599,316.644055 176.444713,316.678036 174.252933,317.038158" id="Fill-319" fill="#FFFFFF"></path>
                                <path d="M113.032458,101.191182 C125.764035,121.939979 157.889403,126.294251 177.600162,126.188792 C199.114512,126.07474 218.688701,121.892328 240.602588,105.097059 C240.173702,104.953323 237.677476,95.2733889 237.472033,94.5511924 C216.702364,106.778148 196.097831,104.429935 171.838766,99.4612697 C148.131853,94.6066558 121.250166,73.4594594 113.815097,84.7865012 C113.815097,84.7865012 108.041961,95.1601185 113.032458,101.191182" id="Fill-321" fill="#FFFFFF"></path>
                                <path d="M238.406386,99.8683792 C229.254208,107.050114 192.122691,112.940567 173.295531,109.784228 C154.468371,106.627889 132.206992,95.3324848 115.085202,83.3902675 C114.456352,83.8620974 113.899504,84.4522753 113.42366,85.177206 C113.42366,85.177206 107.650524,95.5504328 112.641021,101.581887 C125.372598,122.330684 157.497966,126.684565 177.208725,126.579497 C198.723075,126.465445 218.297264,122.283033 240.211152,105.487764 C239.981056,105.410427 239.154198,102.582182 238.406386,99.8683792" id="Fill-323" fill="#F2F0F8"></path>
                                <path d="M191.625754,95.5959362 C199.3504,99.0780251 207.978993,99.3951823 215.972475,96.5583442" id="Stroke-325" stroke="#FFFFFF"></path>
                                <path d="M185.483096,204.419592 C191.502763,210.499089 194.894719,218.262018 196.549218,226.687384" id="Stroke-327" stroke="#FFFFFF" stroke-width="0.75"></path>
                                <path d="M195.122428,208.649695 C198.251418,214.709662 199.91296,221.372697 199.886351,228.056824" id="Stroke-329" stroke="#FFFFFF" stroke-width="0.75"></path>
                                <path d="M16.63988,290.12042 C13.8955569,295.274614 9.67400302,299.48554 4.50897801,302.228637" id="Stroke-331" stroke="#FFFFFF" stroke-width="0.75"></path>
                                <path d="M8.81349162,292.073358 C6.63423377,296.547539 0.247509533,299.885111 0.247509533,299.885111" id="Stroke-333" stroke="#FFFFFF" stroke-width="0.75"></path>
                                <path d="M79.6155402,220.721314 C78.7898563,226.80667 107.445395,233.867323 110.276982,224.013968 C113.110526,214.159832 116.892628,197.755542 116.892628,197.755542 C108.162683,199.435459 97.8322418,196.114683 86.184228,195.023381 C86.184228,195.023381 80.4408329,214.635959 79.6155402,220.721314" id="Fill-335" fill="#FFFFFF"></path>
                                <path d="M83.918919,199.492641 C93.7930819,204.644492 105.358527,206.465021 115.810278,203.234471" id="Stroke-337" stroke="#68482F" stroke-width="0.75"></path>
                                <path d="M160.609112,24.7300179 C176.782343,17.919341 179.873767,9.56935831 182.663483,6.39973955 C184.529294,4.28002039 191.678308,4.45305071 190.50435,13.3022045 C210.32507,-6.42364351 223.613495,10.3450654 218.532212,22.5087459 C212.804861,36.2226688 193.663081,52.4804891 177.748511,40.782389 L160.609112,24.7300179 Z" id="Fill-339" fill="#F2F0F8"></path>
                                <path d="M180.25229,18.0234717 C183.859081,15.0350856 187.154773,11.3756699 189.618129,7.26942201 C187.785189,4.38649458 183.940476,4.74856933 182.643252,6.22225652 C179.853927,9.39187529 176.763286,17.7414674 160.588489,24.5521442 L161.052985,24.9860871 C168.052907,25.660632 174.88104,22.4746085 180.25229,18.0234717" id="Fill-341" fill="#FFFFFF"></path>
                                <path d="M140.665205,63.4424486 C140.665205,63.4424486 143.409136,23.5544662 165.666211,20.7644987 C187.279565,18.0549921 195.612712,28.0528642 190.234809,50.4823598 C184.693726,73.5973368 175.628421,79.5912949 170.765103,79.5530173 C165.900611,79.5143491 163.090938,71.7662619 157.979132,74.5187331 C154.559392,76.3595727 149.684335,81.5500919 146.315074,81.9273996 C139.716255,82.6656102 137.154287,75.9185992 137.154287,75.9185992 L140.665205,63.4424486 Z" id="Fill-343" fill="#FFA481"></path>
                                <path d="M171.247717,57.069269 C167.068817,58.3050883 164.9373,65.1614639 160.215249,63.2393821 C157.019343,61.9383346 149.940375,50.5441117 149.940375,50.5441117 C149.940375,50.5441117 148.905335,56.088894 148.854463,57.98715 C148.754677,61.6957797 172.307802,84.6287428 176.75319,84.609604 C189.457375,84.5557029 182.911384,71.1804195 187.293379,60.5087838 C183.617324,62.7136511 171.247717,57.069269 171.247717,57.069269" id="Fill-345" fill="#D3C7C7"></path>
                                <path d="M150.677464,52.15013 C150.251317,51.4892557 150.001264,51.0869505 150.001264,51.0869505 C150.001264,51.0869505 147.732003,51.9849115 148.915353,58.5295981 C150.294754,66.1636337 155.400298,67.8005865 162.238605,74.2683274 C156.538646,68.0943084 152.267786,60.8340652 150.677464,52.15013" id="Fill-347" fill="#F2F0F8"></path>
                                <path d="M137.670281,77.1780491 C139.789666,67.5078801 140.462345,64.9081287 140.628264,61.3694046 C139.946194,63.8183892 134.288889,70.6571883 134.288889,70.6571883 L137.670281,77.1780491 Z" id="Fill-349" fill="#FFC09D"></path>
                                <path d="M176.371928,47.3444568 C176.264706,46.3836112 175.396368,45.6926616 174.434114,45.8004638 C173.471859,45.908266 172.779224,46.7738082 172.887228,47.7346538 C172.994841,48.6951089 173.862396,49.386449 174.824259,49.2786468 C175.786905,49.1712352 176.47954,48.3049118 176.371928,47.3444568" id="Fill-351" fill="#68482F"></path>
                                <path d="M174.657874,47.983405 C174.887345,47.6972592 174.840193,47.2801919 174.552569,47.0520592 C174.268088,46.8239265 173.849226,46.8701802 173.620541,47.15711 C173.391856,47.4424718 173.438222,47.8595391 173.724274,48.0876718 C174.011113,48.3165885 174.429975,48.2695508 174.657874,47.983405" id="Fill-353" fill="#FFFFFF"></path>
                                <path d="M149.173702,42.3387246 C139.475241,38.0032017 136.382253,55.2160087 144.780359,54.2766454" id="Fill-355" fill="#FFA481"></path>
                                <path d="M147.410847,44.9402726 C143.604483,43.7634321 142.076772,45.93549 142.739276,50.18938" id="Stroke-357" stroke="#68482F" stroke-width="0.752"></path>
                                <path d="M185.81787,39.1236384 C187.585459,37.3106546 188.92025,37.6619302 191.04081,38.3877661" id="Stroke-359" stroke="#F2F0F8" stroke-width="7.014" stroke-linecap="round"></path>
                                <path d="M196.187834,46.8216943 C195.687337,50.561571 192.784529,53.2597505 189.706411,52.8484617 C186.627901,52.4371729 184.538255,49.0726509 185.039927,45.3331648 C185.540424,41.5936786 188.442449,38.8951086 191.520959,39.3060068 C194.600251,39.7172956 196.688723,43.0822081 196.187834,46.8216943 Z" id="Stroke-361" stroke="#D82E2F" stroke-width="2.004"></path>
                                <path d="M181.535153,44.8796144 C181.535153,44.8796144 200.282483,55.8574708 200.715674,59.715305 C198.334104,62.1400731 185.938279,56.9612715 182.865639,56.7280907" id="Fill-363" fill="#FFA481"></path>
                                <path d="M167.359763,40.8414068 C170.947771,36.7441424 176.413721,37.7518585 179.948118,39.8688436" id="Stroke-365" stroke="#F2F0F8" stroke-width="7.014" stroke-linecap="round"></path>
                                <path d="M196.052164,43.0172925 C195.324701,41.7842073 194.288879,40.8288299 193.045265,40.3218471 C191.264762,42.874728 189.737051,45.5580651 188.883975,48.433962 C191.422855,46.8915314 193.791903,45.0253036 196.052164,43.0172925" id="Fill-367" fill="#FFFFFF"></path>
                                <path d="M176.295894,48.451929 C176.40155,48.2078117 176.504076,47.9629133 176.599558,47.7148901 C173.946412,49.051481 171.43649,50.7247585 169.023614,52.5480217 C169.301842,53.1167173 169.643464,53.6365894 170.04261,54.0912335 C172.221085,52.3414008 174.264555,50.3908061 176.295894,48.451929" id="Fill-369" fill="#FFFFFF"></path>
                                <path d="M183.302195,51.7620031 C180.701877,53.8118071 181.662175,55.5077386 184.649116,56.7314497" id="Stroke-371" stroke="#68482F" stroke-width="0.752"></path>
                                <path d="M180.700899,46.2338645 C183.265215,47.4046841 182.529143,47.2237056 184.983498,45.6669219" id="Stroke-373" stroke="#D82E2F" stroke-width="2.004"></path>
                                <path d="M180.413905,48.5253595 C179.833578,52.8577577 176.470971,55.9844118 172.905268,55.5078949 C169.338391,55.0317685 166.918081,51.1337038 167.49919,46.800915 C168.079126,42.4689074 171.441342,39.3426439 175.007827,39.8187702 C178.573921,40.2948966 180.994232,44.1929613 180.413905,48.5253595 Z" id="Stroke-375" stroke="#D82E2F" stroke-width="2.004"></path>
                                <path d="M146.615608,41.1156384 C148.067794,44.6160849 147.179499,47.6173604 149.655768,50.6209794 C149.66829,50.7162828 149.248796,43.0115508 152.150821,36.9914234 C160.473794,35.8915286 163.375818,32.6133265 160.60919,24.730096 C162.642877,23.9329066 169.026862,24.0059465 171.039809,21.7006982 C157.979915,21.7010888 156.918657,11.3302055 149.86395,3.29816116 C141.405972,-6.33138671 127.379519,8.68905187 136.306298,16.6183717 C118.101727,1.04759513 107.529841,30.9568443 131.538462,30.9095832 C128.343339,30.8006092 124.988557,31.7087255 121.957397,31.7552054 C122.010617,31.9044099 121.715953,32.849632 121.598949,32.867599 C126.528008,40.4617947 136.734401,43.1783318 145.099636,41.6792564" id="Fill-377" fill="#F2F0F8"></path>
                                <path d="M132.791427,38.3670341 C130.604343,35.0978154 130.835222,31.8133639 133.188617,29.3776593 C130.385204,27.3032483 127.694101,24.1371449 130.716261,21.2081281 C133.039133,18.9583432 136.321129,18.0877234 139.57495,17.8893049 C138.299248,15.5293743 137.335037,12.89447 137.935712,10.3884597 C138.951186,6.14824016 144.469573,5.5178317 148.040363,6.4032939 C150.368322,6.98019185 152.399661,8.07891491 154.297951,9.40574115 C153.00151,7.30164549 151.610761,5.1448205 149.845128,3.13485646 C141.38715,-6.49469141 127.361088,8.52535659 136.28904,16.455067 C118.082904,0.883509259 107.511802,30.7927584 131.520813,30.7458879 C128.324516,30.6369139 124.970909,31.5446396 121.938966,31.5915101 C121.993359,31.7407146 121.697131,32.6855461 121.5813,32.7039038 C124.695029,37.5014918 129.91523,40.3504381 135.447312,41.4214295 C134.443187,40.4910497 133.535326,39.4805994 132.791427,38.3670341" id="Fill-379" fill="#FFFFFF"></path>
                                <path d="M146.700837,42.0739842 C152.626196,35.5699187 159.421457,45.0045634 167.499073,46.8012665" id="Stroke-381" stroke="#D82E2F" stroke-width="2.004"></path>
                                <path d="M166.080696,21.2153149 C161.646656,18.4679214 160.422609,14.863188 163.731997,10.8444317" id="Stroke-383" stroke="#FFFFFF" stroke-width="1.002"></path>
                                <path d="M156.685195,21.8729083 C149.119426,22.1103856 144.823913,18.8552281 146.932342,12.330852" id="Stroke-385" stroke="#68482F" stroke-width="0.752"></path>
                                <path d="M138.323001,19.9891822 C121.654751,15.1591753 124.171326,32.0477946 136.60237,30.7916647 C121.848845,36.4696374 150.268809,38.6096671 158.163287,28.0087278" id="Stroke-387" stroke="#68482F" stroke-width="0.752" stroke-linejoin="round"></path>
                                <path d="M193.448207,22.4847248 C198.081429,22.4691013 201.789963,20.2693116 203.791953,16.2075907" id="Stroke-389" stroke="#68482F" stroke-width="0.752"></path>
                                <path d="M198.663399,30.496732 C206.878759,32.8211191 214.058688,29.7550061 217.830616,21.9971542" id="Stroke-391" stroke="#68482F" stroke-width="0.752"></path>
                                <path d="M186.656702,16.746836 C192.04204,13.0151616 194.429088,7.55591805 192.833288,1.48384247" id="Stroke-393" stroke="#F2F0F8" stroke-width="0.752"></path>
                                <path d="M178.184871,70.7039807 C180.046378,72.8670551 180.119163,76.1921278 180.336346,79.3234689" id="Stroke-395" stroke="#FFFFFF" stroke-width="1.002"></path>
                                <path d="M180.522066,70.4421308 C181.388056,72.0349472 181.977383,73.7324411 182.279873,75.5619536" id="Stroke-397" stroke="#FFFFFF" stroke-width="1.002"></path>
                                <path d="M175.882778,70.0832198 C176.748377,71.6756456 177.337313,73.3735301 177.640976,75.2026521" id="Stroke-399" stroke="#FFFFFF" stroke-width="1.002"></path>
                                <path d="M190.513703,46.095045 C190.433482,45.3826132 189.790936,44.8697716 189.076778,44.949842 C188.364185,45.0299125 187.849991,45.6720386 187.929821,46.3844705 C188.00965,47.0957306 188.653762,47.6089627 189.366745,47.5288923 C190.080512,47.4492124 190.593532,46.8066957 190.513703,46.095045" id="Fill-401" fill="#68482F"></path>
                                <path d="M189.434241,46.5855136 C189.393418,46.2218509 189.064476,45.9608601 188.700991,46.0008317 C188.337506,46.041587 188.07451,46.369197 188.114548,46.7336435 C188.156156,47.0957387 188.485098,47.358297 188.847798,47.3183254 C189.212068,47.2767864 189.47585,46.9483926 189.434241,46.5855136" id="Fill-403" fill="#FFFFFF"></path>
                                <path d="M172.904329,60.1794794 C176.817523,69.5535829 185.035231,67.6006447 184.359814,63.1772396 C184.325377,61.3024189 178.77412,61.3512423 172.904329,60.1794794" id="Fill-405" fill="#FFFFFF"></path>
                                <path d="M114.695957,41.5468472 C117.83786,45.7960502 122.410428,47.4943253 127.42049,46.1331273" id="Stroke-407" stroke="#FFFFFF" stroke-width="1.002"></path>
                                <path d="M113.989351,34.8439335 C115.58476,38.6752077 119.796923,42.1135508 124.592933,43.3107019" id="Stroke-409" stroke="#FFFFFF" stroke-width="1.002"></path>
                                <path d="M228.152605,18.6156416 C228.87185,23.1238043 227.305398,26.8867257 223.558123,29.5520958" id="Stroke-411" stroke="#FFFFFF" stroke-width="1.002"></path>
                                <path d="M178.77412,108.22176 C176.779565,111.323417 174.314644,114.798865 172.12169,117.595864" id="Stroke-413" stroke="#68482F" stroke-width="0.75"></path>
                                <path d="M180.730717,108.612348 C180.501404,109.921597 178.99639,112.883033 177.600162,114.471162" id="Stroke-415" stroke="#68482F" stroke-width="0.75"></path>
                                <path d="M270.734184,76.1935729 C271.552041,79.3772528 270.975236,82.775756 269.168906,85.5676765" id="Stroke-417" stroke="#FFFFFF"></path>
                                <path d="M276.995294,70.7253459 C278.978501,78.771842 278.189993,87.3382103 273.47342,94.1606047" id="Stroke-419" stroke="#FFFFFF"></path>
                                <path d="M283.814348,62.8634414 C288.182256,74.8169858 286.512496,88.7312802 281.529043,100.292675" id="Stroke-421" stroke="#FFFFFF"></path>
                                <path d="M114.597735,105.487647 C122.7137,115.343735 148.251205,125.407617 162.730024,126.188792" id="Stroke-423" stroke="#68482F" stroke-width="0.75"></path>
                                <path d="M114.990581,111.346461 C118.389581,113.621244 122.242121,114.681689 126.338844,114.471162" id="Stroke-425" stroke="#68482F" stroke-width="0.75"></path>
                            </g>
                        </g>
                    </g>
                </g>
            </g>
        </g>
    </g>
</svg>